<?xml version="1.0" encoding="UTF-8"?>
<svg id="Layer_1" data-name="Layer 1" xmlns="http://www.w3.org/2000/svg" viewBox="0 0 79.6 80">
  <defs>
    <style>
      .cls-1 {
        fill: #dc2626;
      }

      .cls-1, .cls-2 {
        stroke-width: 0px;
      }

      .cls-2 {
        fill: #fdc040;
      }
    </style>
  </defs>
  <circle class="cls-2" cx="69.7" cy="69" r="9"/>
  <path class="cls-2" d="M1.7,35l1,15.5,9,9,1-4.5,1-16.5v-15l-2-2-2-1h-5l-3,2v12.5Z"/>
  <g>
    <path class="cls-1" d="M75.6,1.6c0-.4,0-.8-.3-1-.3-.3-.6-.5-1-.5h-4c-.6,0-1.2.5-1.3,1.1h0c0,.1,0,0,0,0-.1-.6-.7-1.1-1.3-1.1h-4c-.4,0-.7.2-1,.5-.3.3-.4.7-.3,1l2.7,21.2v10.8c0,2.8-.5,5.5-1.2,8.2-.2.7-.2,1.4,0,2.1.4,2.2,2.1,3.9,4.3,4.3.3,0,.6,0,.9,0,1.4,0,2.8-.6,3.8-1.6,1-1,1.6-2.4,1.6-3.8s0-.5,0-.8l-.3-1.9c-.6-3.2-.9-6.4-1-9.6v-7.9l2.7-21.2ZM65.2,2.8h1.4l3.8,20.1v4.2l-2.7-4.7-2.4-19.5ZM70.7,45.1c-.6.5-1.4.7-2.2.6-1.1-.2-1.9-1.1-2.1-2.1,0-.4,0-.7,0-1.1.8-2.9,1.2-5.8,1.3-8.8v-5.9l2.7,4.8c.2,2.8.5,5.5,1,8.2l.3,1.9c0,.1,0,.3,0,.4,0,.8-.3,1.5-1,2ZM71.4,14.1l-1.1-5.8h0s1-5.6,1-5.6h1.4l-1.4,11.3Z"/>
    <path class="cls-1" d="M49.5,31.4l.7-1.4-2.4-1.2-.7,1.4c-1.3,2.5-3.5,4.4-6.1,5.4v-11.8c3.1-1,5.7-3.1,7.2-5.9l.6-1.1-2.3-1.3-.6,1.1c-1.1,2-2.8,3.5-4.9,4.3v-8.8h-2.7v8.8c-2.1-.8-3.8-2.4-4.9-4.3l-.6-1.1-2.3,1.3.6,1.1c1.5,2.8,4.1,5,7.2,5.9v11.8c-2.6-1-4.8-3-6.1-5.4l-.7-1.4-2.4,1.2.7,1.4c1.8,3.4,4.8,5.9,8.4,7v11.8c-2.6-1-4.8-3-6.1-5.4l-.7-1.4-2.4,1.2.7,1.4c1.8,3.4,4.8,5.9,8.4,7v19h2.7v-19c3.6-1.1,6.7-3.7,8.5-7l.7-1.4-2.4-1.2-.7,1.4c-1.3,2.5-3.5,4.4-6.1,5.4v-11.8c3.6-1.1,6.7-3.7,8.5-7Z"/>
    <path class="cls-1" d="M72.7,59.4c1.3-1.1,2.3-2.6,2.9-4.3l-2.5-.8c-.5,1.5-1.5,2.7-2.7,3.6v-5.9h-2.7v5.9c-1.3-.9-2.2-2.1-2.7-3.6l-2.5.8c.6,1.7,1.5,3.1,2.9,4.3-4.8,1.8-7.7,6.8-6.8,11.9.9,5.1,5.3,8.8,10.5,8.8s9.6-3.7,10.5-8.8c.9-5.1-1.9-10.1-6.8-11.9h0ZM69,77.3c-4.4,0-8-3.6-8-8s3.6-8,8-8,8,3.6,8,8c0,4.4-3.6,8-8,8Z"/>
    <path class="cls-1" d="M61,22.7c0-3.6-2-6.8-5.2-8.4-.6-.3-.9-1-.7-1.6,1.5-3.9.1-8.4-3.3-10.8-3.4-2.5-8-2.4-11.3.3-.5.4-1.2.4-1.6,0-2-1.6-4.5-2.3-7-2-2.8.3-5.4,2-6.8,4.4-1.5,2.4-1.8,5.4-.7,8.1.2.6,0,1.4-.7,1.6-2.6,1.2-4.4,3.6-5,6.4-.6,2.8,0,5.7,1.9,7.9.4.4.4,1.1,0,1.5-2.8,3.4-2.8,8.4,0,11.8.4.5.3,1.1,0,1.6-2.2,2.8-2.7,6.6-1.2,9.8,1.5,3.2,4.7,5.3,8.3,5.4l1.8,12.3c.7,5.2,5.2,9,10.4,9s9.7-3.9,10.4-9l1.8-12.3c3.6,0,6.8-2.2,8.3-5.4,1.5-3.2,1-7-1.2-9.8-.4-.4-.4-1.1,0-1.6,2.8-3.4,2.8-8.4,0-11.8-.4-.4-.4-1.1,0-1.5,1.4-1.7,2.1-3.7,2.1-5.9ZM56.8,31.8c1,1.2,1.5,2.7,1.5,4.2,0,1.5-.5,3-1.5,4.2-1.2,1.4-1.1,3.5,0,4.9,1.6,2,1.9,4.7.8,7-1.1,2.3-3.4,3.8-6,3.8-.3,0-.5,0-.8,0-.3,0-.7,0-1,.3-.3.2-.5.5-.5.9l-1.9,13.5c-.6,3.9-3.9,6.8-7.8,6.8s-7.2-2.9-7.8-6.8l-1.9-13.5c-.1-.7-.7-1.1-1.4-1.1,0,0-.1,0-.2,0-2.1.2-4.2-.6-5.6-2.2-2.2-2.4-2.3-6.1-.2-8.6,1.2-1.4,1.2-3.5,0-4.9-1-1.2-1.5-2.7-1.5-4.2,0-1.5.5-3,1.5-4.2,1.2-1.4,1.2-3.5,0-4.9-1.3-1.6-1.8-3.7-1.3-5.6.4-2,1.8-3.7,3.6-4.6,1.9-.9,2.7-3.1,2-5-.4-1.1-.5-2.2-.4-3.3.5-2.9,2.8-5.2,5.8-5.6,1.8-.2,3.6.3,5,1.4,1.5,1.2,3.5,1.2,5,0,1.4-1.1,3.2-1.6,5-1.4,3,.4,5.3,2.7,5.8,5.6.2,1.1,0,2.3-.4,3.3-.7,1.9.1,4.1,2,5,1.8.9,3.2,2.6,3.6,4.6.4,2,0,4.1-1.3,5.6-1.2,1.4-1.2,3.5,0,4.9Z"/>
    <path class="cls-1" d="M0,25.7l2.2,49c.1,2.9,2.6,5.3,5.5,5.3s5.4-2.3,5.5-5.3l2.2-49c0-1.8-.6-3.6-1.8-4.9-.2-.2-.3-.3-.5-.4L14.4.2,11.7,0l-1.2,19c-.5-.1-1-.2-1.5-.2V0h-2.7v18.7c-.5,0-.9,0-1.4.2L3.7,0,1.1.2l1.3,20h.2c-.3.2-.5.4-.8.6C.6,22.1,0,23.9,0,25.7ZM3.8,22.6c.8-.8,1.8-1.2,2.9-1.2h2.2c1.1,0,2.1.4,2.9,1.2.8.8,1.2,1.9,1.1,2.9l-.6,13.1h-4.5v2.7h4.4l-1,21.3h-3.4v2.7h3.3l-.4,9.3c0,1.5-1.3,2.7-2.8,2.7s-2.8-1.2-2.8-2.7l-1-22.6h3.9v-2.7h-4l-.8-18.6h4.8v-2.7H2.8v-2.5c-.2-1.1.2-2.2,1-2.9Z"/>
    <path class="cls-1" d="M63.7,69.3c0,1.3.5,2.6,1.4,3.6l2-1.8c-.6-.7-.8-1.6-.6-2.4.2-.9.9-1.6,1.7-1.9l-.9-2.5c-2.1.8-3.5,2.8-3.6,5Z"/>
  </g>
</svg>