<?xml version="1.0" encoding="UTF-8"?>
<svg id="Layer_1" data-name="Layer 1" xmlns="http://www.w3.org/2000/svg" viewBox="0 0 80 75.6">
  <defs>
    <style>
      .cls-1 {
        fill: #dc2626;
      }

      .cls-1, .cls-2 {
        stroke-width: 0px;
      }

      .cls-2 {
        fill: #fdc040;
      }
    </style>
  </defs>
  <path class="cls-2" d="M22.5,54.8c-2.4-.4-3.7.5-4,1l-.5.5c-.5.7-1.5,2.1-1.5,2.5v3c0,.5,0,2,.5,3s.5,1.5,1,2,1,1,1.5,1,3,.5,3.5.5h5.5c1.5,0,2-.5,3-.5s2-.5,2-1,.5-1,1-1.5,0-1.5.5-2.3c.5-.8,0-1.2,0-1.7v-2.5c0-.5-.5-1-.5-1.5s-1-1-1.5-1.5-1.5-.8-2-1c-1.8.2-6.1.4-8.5,0Z"/>
  <path class="cls-2" d="M67,28.8c-7.2,2.8-21,1.2-27,0l-1.5,1-2.5,4-1.5,3.5c1.6.4,6.3,4.5,8.5,6.5l1.5,3c3.6.4,4.5,3.5,4.5,5l.5,10.5c6.8,2,22.5-1.2,29.5-3,.4-.8-1.2-9.3-2-13.5-2-6-7.5-13.8-10-17Z"/>
  <g>
    <path class="cls-1" d="M74.1,36.7c-2.4-4.4-4.8-7.2-5.6-8.1v-6.4l11.1-9.1c.3-.2.4-.5.4-.9,0-.3-.1-.7-.4-.9l-8.4-7.5c-.5-.4-1.2-.4-1.7,0-.4.5-.4,1.2,0,1.7l7.4,6.6-8.6,7v-4.8c0-.6-.5-1.2-1.2-1.2s-1.2.5-1.2,1.2v13.7c-8.4,1.4-16.8,1.4-25.2,0v-13.7c0-.6-.5-1.2-1.2-1.2s-1.2.5-1.2,1.2v4.8l-8.6-7,9.1-8.2c1.3-1.2,3.1-1.7,4.7-1.5.3,1.5,1.1,4.6,2.3,7.7,2,5.1,4.3,8.1,6.9,9,.1,0,.3,0,.4,0s.3,0,.4,0c2.6-.9,4.9-3.9,6.9-9,1.2-3.1,2-6.2,2.3-7.6,1-.1,2.1,0,3.1.4.6.3,1.3,0,1.5-.6.3-.6,0-1.3-.6-1.5-3-1.3-6.5-.7-8.9,1.5l-1.1,1c-2.1,1.9-5.2,1.9-7.2,0l-1.1-1c-3.2-2.9-8-2.9-11.2,0l-10.1,9.1c-.3.2-.4.6-.4.9,0,.3.2.7.4.9l11.1,9.1v6.4c-.8.9-2.7,3.2-4.8,6.8-1.8-.9-3.7-1.9-5.6-2.8-1.7-.8-3.3-1.7-5-2.5,1.6-2,2.8-4.2,3.3-6.8.8-4-.4-7.6-3.3-9.8-2.7-2.1-6.5-2.6-9.4-1.2-1.5.8-4.1,2.7-4.1,7.4s1.9,5.7,5.7,8.5c1.2.9,2.6,1.7,4,2.5-1.8,1.8-3.8,3.3-5.8,4.8-4.2,3.2-8.1,6.2-8.2,10.3-2.6.6-4.5,2.7-4.9,5.4-.8,6.1-.8,12.3,0,18.4.4,3.1,2.9,5.4,6,5.6,6.2.3,12.5.5,18.8.5s12.5-.2,18.8-.5c3.1-.2,5.6-2.5,6-5.6.2-1.8.4-3.7.5-5.5,1,0,1.9,0,2.9,0,15.3,0,25.3-3.6,25.7-3.7.5-.2.8-.6.8-1.1,0-9.7-3.2-17.6-5.9-22.5ZM48.3,4.9c3,2.7,7.4,2.7,10.4,0l1.1-1c.2-.2.5-.4.7-.5-.4,1.6-1,3.7-1.9,5.8-2,5-3.8,6.8-5.1,7.5-1.3-.6-3.2-2.5-5.1-7.5-.8-2.1-1.5-4.3-1.9-5.8.2.2.5.3.7.5l1.1,1ZM12.1,19.6c0-2.5,1-4.4,2.8-5.3.8-.4,1.7-.6,2.6-.6,1.5,0,3.1.5,4.4,1.5,1.3,1,3.3,3.3,2.4,7.5-.5,2.3-1.6,4.3-3.1,6.2-5.1-2.8-9-5.9-9-9.3ZM6.7,47.9c2.1-.1,4.2-.2,6.2-.3.6,0,1.2-.6,1.1-1.2,0-.6-.6-1.2-1.2-1.1-1.7,0-3.4.1-5.1.2.3-2.9,3.6-5.3,7.3-8.2,2.2-1.7,4.5-3.4,6.5-5.5,1.8,1,3.7,1.9,5.5,2.8,1.8.9,3.7,1.8,5.5,2.8-1.2,2.2-2.3,4.8-3.2,7.7-3.9,0-7.9,0-11.8,0-.6,0-1.2.6-1.1,1.2,0,.6.5,1.2,1.2,1.1,8.7-.2,17.6,0,26.4.4,2,.1,3.6,1.6,3.8,3.5.2,1.3.3,2.6.4,3.9,0,1.3-.2,2.6-.4,3.8-.2,2-1.9,3.4-3.8,3.5-2.7.1-5.3.2-7.9.3,0-1.7,0-3.3-.1-5-.2-2.2-2-4-4.2-4.1-3.8-.2-7.6-.2-11.4,0-2.2.1-4,1.9-4.2,4.1-.1,1.7-.2,3.3-.1,5-3.1,0-6.2-.2-9.3-.4-2-.1-3.6-1.6-3.8-3.5-.2-1.2-.3-2.5-.4-3.8,0-1.3.2-2.6.4-3.9.2-2,1.9-3.4,3.8-3.5ZM34.7,38.5c3.8,2.2,6.9,4.4,7.9,6.9-3.6-.2-7.2-.3-10.7-.4.8-2.4,1.8-4.6,2.8-6.6ZM33.6,64.8c0,1.1-.9,1.9-2,2h0c-3.7.2-7.5.2-11.2,0-1,0-1.9-.9-2-2-.2-2.2-.2-4.4,0-6.6,0-1.1.9-1.9,2-2,1.9-.1,3.7-.2,5.6-.2s3.7,0,5.6.2c1,0,1.9.9,2,2,.2,2.2.2,4.4,0,6.6ZM44,72.8c-12.4.6-24.9.6-37.3,0-2-.1-3.6-1.6-3.8-3.5-.3-2-.4-4.1-.5-6.1,1.1,1.1,2.6,1.8,4.2,1.9,3.2.2,6.4.3,9.6.4.3,2,2.1,3.6,4.2,3.7,1.9.1,3.8.2,5.7.2s3.8,0,5.7-.2c2.1-.1,3.8-1.7,4.2-3.8,2.7,0,5.5-.2,8.2-.3,1.6,0,3.1-.8,4.2-1.9,0,2-.2,4.1-.5,6.1-.2,2-1.9,3.4-3.8,3.5ZM73.8,59.4c-.2-3.5-.7-7-1.3-10.5-.1-.6-.7-1.1-1.4-.9-.6.1-1.1.7-.9,1.4.6,3.4,1.1,7,1.3,10.5-.9.2-1.9.4-3.1.6-.1-4.7-.6-9.4-1.5-14-.1-.6-.7-1.1-1.4-.9-.6.1-1.1.7-.9,1.4.9,4.5,1.3,9.2,1.5,13.9-3.5.5-7.8.9-12.6.9s-1.9,0-2.8,0c0-3.5-.1-7.1-.6-10.6-.4-2.8-2.4-4.9-5.1-5.5-.9-3.6-4.5-6.5-9.3-9.2,1.9-3.2,3.6-5.3,4.4-6.2,4.4.7,8.9,1.1,13.3,1.1s8.9-.4,13.3-1.1c.9,1,3.1,3.7,5.2,7.6,2.5,4.5,5.4,11.7,5.6,20.5-.8.2-2.1.6-3.8,1Z"/>
    <path class="cls-1" d="M30.7,58c-1.6,0-3.1-.1-4.7-.1s-3.1,0-4.7.1c-.6,0-1.1.5-1.1,1.1,0,1.6,0,3.2,0,4.8,0,.6.5,1.1,1.1,1.1,1.6,0,3.1.1,4.7.1s3.1,0,4.7-.1c.6,0,1.1-.5,1.1-1.1,0-1.6,0-3.2,0-4.8,0-.6-.5-1.1-1.1-1.1ZM29.6,62.7c-2.4,0-4.7,0-7.1,0,0-.8,0-1.6,0-2.4,2.4,0,4.7,0,7.1,0,0,.8,0,1.6,0,2.4Z"/>
  </g>
</svg>