<?xml version="1.0" encoding="UTF-8"?>
<svg id="Layer_1" data-name="Layer 1" xmlns="http://www.w3.org/2000/svg" viewBox="0 0 74.7 80">
  <defs>
    <style>
      .cls-1 {
        fill: #dc2626;
      }

      .cls-1, .cls-2 {
        stroke-width: 0px;
      }

      .cls-2 {
        fill: #fdc040;
      }
    </style>
  </defs>
  <path class="cls-2" d="M28.3,31.5c-.4.4-.5,2.5-.5,3.5s.4.4,2,0c2-.5,1-.5,2-1.5s.5,0,2.5.5,1,1,2,1.5,1,0,1.5,0,1.5-1,2.5-1.5,1-.5,1.5-1,.5-.8.5-1c0-.3,0-1.2-.5-2-.5-1-1-1.5-1.5-2s-1.5-.5-2.5-1-2,0-3,0-3,.5-3.5.5-1.5,1.5-2,2-.5,1.5-1,2Z"/>
  <path class="cls-2" d="M52.8,21.5c-.5.5-3.5,11.5-3.5,12,.3.3,1.5,1.2,3.5,2,2,.5,1-.5,2.5-1s1-.5,2.5-.5,1,0,2.5,1,1,0,2,0,1.3-1,1.5-1.5l2-4,4-9,3-11.5-4-.5c-3.3-.2-10.1-.5-10.5-.5s-1.2,2.7-1.5,4c-1.2,3-3.6,9.1-4,9.5Z"/>
  <path class="cls-2" d="M22.3,68c-6,1.6-8.2-4-8.5-7h-1c-.3-.2-1.1-.5-1.5-.5s-3.5-.5-4-.5-3,.5-3,1-2,3-2.5,3.5,0,4.5,0,5,1,3,1,3.5.5,1.5,1,2.5,1,1.5,2,2.5c1,1,0,.5,1.5.5s1.5,0,2.5-.5,2.5-.5,3-.5,1,1,2,1,1,.5,2,0,1.5-.5,2.5-1,2-3.5,2-4,.7-3.8,1-5.5Z"/>
  <g>
    <path class="cls-1" d="M61.3,12.4l2.5-.8,2.6,8-2.5.8-2.6-8Z"/>
    <path class="cls-1" d="M57.4,21.7l2.5-.8,2.6,8-2.5.8-2.6-8Z"/>
    <path class="cls-1" d="M12.4,25.6c-.3,2,.3,4.1,1.6,5.7l1.9,2.4v22.3h2.7v-20.2l1.9,1.3c.4.3,1,.3,1.5,0l3.3-2.2,3.3,2.2c.4.3,1,.3,1.5,0l3.3-2.2,3.3,2.2c.4.3,1,.3,1.5,0l3.3-2.2,3.3,2.2c.4.3,1,.3,1.5,0l3.3-2.2,2.7,1.8v40.6h-29.3v2.7h37.3c3.7,0,6.7-3,6.7-6.7v-40c0-.3-.1-.6-.3-.8l7.7-20.5c1-2.8.7-5.8-1-8.3C71.5,1.4,68.8,0,66,0c-3.6,0-6.8,2.3-8.1,5.7l-2.1,5.6-2.5-2.5v-4.8c0-.7-.6-1.3-1.3-1.3h-14.7c-.7,0-1.3.6-1.3,1.3v2.3c-1.5-1.4-3.8-1.4-5.4-.2v-2.1C30.6,1.8,28.9,0,26.7,0s-4,1.8-4,4v2.1c-.7-.6-1.6-.9-2.6-.9-1.1,0-2.2.4-2.9,1.2-1.6,1.6-1.6,4.2,0,5.9l1.2,1.3c-.5.2-.9.5-1.2.8h0s0,0,0,0c-.3.3-.6.7-.8,1.1l-1.5-2.8-2.3,1.3,3.4,6.4c-.2,0-.3.2-.5.3,0,0-.1,0-.2.1l-5.2-4.8-1.8,2,5.1,4.7c-.6.9-1,1.9-1.1,3ZM40.6,32.2l-3.3,2.2-3.3-2.2c-.4-.3-1-.3-1.5,0l-3.2,2.2c0-.1,0-.2,0-.4,0-2.9,2.1-5.4,5-5.9,2.9-.5,5.7,1.2,6.7,4-.1,0-.3,0-.4.2ZM44,33.5h0c-.2-2.8-1.7-5.4-4.1-6.9-2.4-1.5-5.3-1.7-7.9-.6v-8.7h12v16.2ZM64,73.3c0,2.2-1.8,4-4,4h-5.3v-40.6l2.7-1.8,3.3,2.2c.4.3,1,.3,1.5,0l1.9-1.3v37.5ZM60.4,6.6c.9-2.4,3.1-3.9,5.6-4,2,0,3.8,1,4.9,2.6,1.2,1.7,1.4,3.9.7,5.8l-8.3,22-2,1.3-3.3-2.2c-.4-.3-1-.3-1.5,0l-3.3,2.2-2.7-1.8,9.8-26ZM54.8,14l-7.1,18.8-1,.7v-17l5.3-5.3,2.8,2.8ZM38.7,5.3h12v2.7h-12v-2.7ZM37.9,10.7h10.9l-4,4h-10.9l4-4ZM19.1,8.3c.3-.3.6-.4,1-.4.4,0,.8.2,1,.4l2,2c.4.4,1,.5,1.5.3.5-.2.8-.7.8-1.2v-5.3c0-.5.2-.9.6-1.2.4-.2.9-.2,1.3,0,.4.2.6.7.6,1.2v5.3c0,.5.3,1,.8,1.2.5.2,1.1,0,1.5-.3l2-2c.6-.6,1.5-.6,2,0,.6.6.6,1.5,0,2.1l-3.9,4h0s-.6.7-.6.7c-.1.1-.2.2-.3.4,0,0,0,0,0,.1,0,.1,0,.2,0,.4,0,0,0,0,0,0v11.8c-.3.3-.6.6-.8.9l-2.5-5.4c-.9-1.8-2.6-3.2-4.6-3.7-.5-.1-.9-.2-1.4-.2l-.3-.4c-.3-.3-.5-.5-.5-.6-.3-.4-.5-.9-.4-1.4,0-.3.2-.5.4-.7h0s0,0,0,0c.5-.5,1.2-.5,1.8-.2.6.4,1.3.3,1.8-.3.4-.5.4-1.3,0-1.8l-3.5-3.6c-.6-.6-.6-1.5,0-2.1ZM15.1,26c.2-1.3.9-2.4,2-3.2,1.1-.7,2.4-1,3.6-.6,1.2.3,2.3,1.2,2.9,2.3l3.4,7.2c0,.3-.2.6-.2.9l-.7-.5c-.4-.3-1-.3-1.5,0l-3.3,2.2-3-2-.3-.4,3.4-2.7-1.6-2.1-3.5,2.7-.3-.4c-.8-1-1.2-2.3-1.1-3.6Z"/>
    <path class="cls-1" d="M2.8,76.7c1,2,3.1,3.3,5.4,3.3.9,0,1.9-.2,2.7-.6l1.1-.5,1.1.5c.8.4,1.8.6,2.7.6,2.3,0,4.4-1.3,5.4-3.3l.5-.9c1.6-3.1,2.4-6.6,2.4-10.1,0-3.9-3.1-7-7-7-1.3,0-2.6.4-3.7,1.1v-1.1c0-2.9-2.4-5.3-5.3-5.3v2.7c1.5,0,2.7,1.2,2.7,2.7v1.1c-1.1-.7-2.4-1.1-3.7-1.1-3.9,0-7,3.1-7,7,0,3.5.8,7,2.4,10.1l.5.9ZM7,61.3c1.1,0,2.2.5,3.1,1.3l1,1c.5.5,1.4.5,1.9,0l1-1c1.2-1.2,3.1-1.6,4.7-.9s2.7,2.2,2.7,4c0,3.1-.7,6.1-2.1,8.9l-.5.9c-.6,1.1-1.7,1.9-3,1.8-.5,0-1-.1-1.5-.4l-1.7-.8c-.4-.2-.8-.2-1.2,0l-1.7.8c-.5.2-1,.4-1.5.4-1.3,0-2.4-.7-3-1.9l-.5-.9c-1.4-2.8-2.1-5.8-2.1-8.9,0-2.4,1.9-4.3,4.3-4.3Z"/>
  </g>
</svg>