<?xml version="1.0" encoding="UTF-8"?>
<svg id="Layer_1" data-name="Layer 1" xmlns="http://www.w3.org/2000/svg" viewBox="0 0 72.3 80">
  <defs>
    <style>
      .cls-1 {
        fill: #dc2626;
      }

      .cls-1, .cls-2 {
        stroke-width: 0px;
      }

      .cls-2 {
        fill: #fdc040;
      }
    </style>
  </defs>
  <rect class="cls-2" x="31.1" y="54" width="30" height="24" rx="6" ry="6"/>
  <path class="cls-2" d="M2.1,7.5l1,2.5,3-1,6-.5,9.5-.5,10,.5,17,1.5,1.5-1.5,1-2.5c.2-.7.5-2.1.5-2.5s-1.3-.5-2-.5l-1.5.5-1.5.5h-3c-.5-.5-1.6-1.5-2-1.5s-1.2-.7-1.5-1h-2.5l-1.5,1.5-2,1h-2l-2.5-1.5-2.5-1.5-2.5.5-1.5,1.5-2.5,1-2.5-.5c-.5-.2-1.6-.5-2-.5s-.8-1-1-1.5h-1.5l-2,.5c-.3.3-1.1,1-1.5,1s-1.5.5-1.5,1-1.5,0-2,0-1,0-1.5-.5c-.4-.4-1.2-.5-1.5-.5H1.6l-.5,2,1,2.5Z"/>
  <g>
    <path class="cls-1" d="M38.6,36.2c0-.6-.5-1.2-1.2-1.2H15.1c-.6,0-1.2.5-1.2,1.2s.5,1.2,1.2,1.2h22.3c.6,0,1.2-.5,1.2-1.2Z"/>
    <path class="cls-1" d="M26.3,51.4c5.3,0,10.3-1.5,14.1-4.4,3.9-2.9,6-6.8,6-10.9s-2.1-8-6-10.9c-3.8-2.8-8.8-4.4-14.1-4.4s-10.3,1.5-14.1,4.4c-3.9,2.9-6,6.8-6,10.9s2.1,8,6,10.9c3.8,2.8,8.8,4.4,14.1,4.4ZM8.5,36.1c0-7.1,8-12.9,17.7-12.9s17.7,5.8,17.7,12.9-8,12.9-17.7,12.9-17.7-5.8-17.7-12.9Z"/>
    <path class="cls-1" d="M70.3,68.7c1-.8,1.5-1.7,1.5-2.7s-.5-2-1.5-2.7c.9-.6,1.4-1.3,1.7-2,.3-.7.4-1.8-.3-3.1-.5-1-1.4-1.7-2.4-2-1.7-.4-4,.4-6.7,2.3-1.3-3.6-4.6-6.1-8.6-6.3-.8,0-1.7,0-2.5,0,.8-13.9.6-28.1-.8-42,.4-.7,1.3-2.2,1.8-4.5.3-1.4-.3-2.7-1.5-3.5-1.2-.7-2.7-.6-3.7.4-.5.5-1,.8-1.9.8s-1.6-.5-2.4-1.2c-.9-.8-1.9-1.9-4-1.9s-3.1,1.1-4,1.9c-.8.7-1.3,1.2-2.4,1.2s-1.6-.5-2.4-1.2c-.9-.8-1.9-1.9-4-1.9s-3.1,1.1-4,1.9c-.8.7-1.3,1.2-2.4,1.2s-1.6-.5-2.4-1.2c-.9-.8-1.9-1.9-4-1.9s-3.1,1.1-4,1.9c-.8.7-1.3,1.2-2.4,1.2s-1.3-.3-1.9-.8c-1-.9-2.5-1.1-3.7-.4C.4,2.7-.2,4.1,0,5.5c.5,2.3,1.3,3.8,1.8,4.5-.2,2.1-.4,4.3-.5,6.5,0,.6.4,1.2,1.1,1.3.6,0,1.2-.4,1.3-1.1.1-2,.3-4.1.5-6.1,14.7-1.8,29.6-1.8,44.2,0,1.3,13.7,1.5,27.6.7,41.4-3.7,0-7.4,0-11.1.1-4,.2-7.3,2.7-8.6,6.3-2.8-1.9-5-2.7-6.7-2.3-1.1.2-1.9.9-2.4,2-.7,1.3-.5,2.4-.3,3.1.2.6.6,1.1,1.1,1.6-5.6-.2-11.3-.6-16.9-1.3-1.2-13.3-1.5-26.8-.8-40.2,0-.6-.5-1.2-1.1-1.2-.7,0-1.2.5-1.2,1.1-.7,13.6-.4,27.4.8,41-.4.7-1.3,2.2-1.8,4.6-.3,1.4.3,2.8,1.5,3.5,1.2.7,2.7.6,3.7-.4.5-.5,1-.8,1.9-.8s1.6.5,2.4,1.2c.9.8,1.9,1.9,4,1.9s3.1-1.1,4-1.9c.8-.7,1.3-1.2,2.4-1.2s.7,0,1,.2c-.4.4-.7.9-.9,1.4-.3.7-.4,1.8.3,3.1.5,1,1.4,1.7,2.4,2,.3,0,.6,0,.9,0,1.6,0,3.5-.8,5.8-2.4,1.3,3.6,4.6,6.1,8.6,6.3,2.6.1,5.3.2,8,.2s5.3,0,8-.2c4-.2,7.3-2.7,8.6-6.3,2.3,1.6,4.3,2.4,5.8,2.4s.6,0,.9,0c1.1-.2,1.9-.9,2.4-2,.7-1.3.5-2.4.3-3.1-.3-.8-.9-1.5-1.7-2ZM3.6,8.4c-.4-.7-.9-1.8-1.2-3.4-.1-.6.3-.9.4-.9.2,0,.6-.3,1,0,.7.6,1.7,1.3,3.4,1.3s3.1-1.1,4-1.9c.8-.7,1.3-1.2,2.4-1.2s1.6.5,2.4,1.2c.9.8,1.9,1.9,4,1.9s3.1-1.1,4-1.9c.8-.7,1.3-1.2,2.4-1.2s1.6.5,2.4,1.2c.9.8,1.9,1.9,4,1.9s3.1-1.1,4-1.9c.8-.7,1.3-1.2,2.4-1.2s1.6.5,2.4,1.2c.9.8,1.9,1.9,4,1.9s2.7-.7,3.4-1.3c.4-.4.8-.2,1,0,.1,0,.5.4.4.9-.4,1.6-.9,2.7-1.2,3.4-15.1-1.8-30.3-1.8-45.4,0ZM52.6,77.5c-1.6,0-3.2,0-4.7.1.7-5.1,2-10.3,3.9-15.4.2-.6,0-1.3-.7-1.5-.6-.2-1.3,0-1.5.7-2,5.4-3.3,10.8-4,16.3-1.6,0-3.1,0-4.7,0,1.6-11.6,5.8-20.4,7.3-23.2,1.5,0,2.9,0,4.4.1-.3.7-.7,1.5-1.2,2.5-.3.6,0,1.3.6,1.5.2,0,.3,0,.5,0,.5,0,.9-.3,1.1-.7.6-1.4,1.2-2.5,1.5-3.3,1.4.3,2.6.9,3.6,1.9-1.9,4.2-4.8,11.8-6,21ZM15.9,68.8c-.8.7-1.3,1.2-2.4,1.2s-1.6-.5-2.4-1.2c-.9-.8-1.9-1.9-4-1.9s-2.7.7-3.4,1.3c-.4.4-.8.2-1,0-.1,0-.5-.4-.4-.9.4-1.7,1-2.9,1.3-3.5,5.5.7,11.1,1.1,16.6,1.3,0,.3-.1.6-.1.9s0,.6.1.9c-.1,0-.3,0-.4,0-2.1,0-3.1,1.1-4,1.9ZM23.2,73.5c-.3,0-.6-.2-.9-.7-.3-.6-.2-1-.2-1.2.2-.6,1.1-1.3,2.5-1.8.5-.2.8-.6.8-1.1,0-.5-.3-.9-.8-1.1-1.4-.5-2.1-1.2-2.1-1.6s.7-1.1,2.1-1.6c.5-.2.8-.6.8-1.1,0-.5-.3-.9-.8-1.1-1.4-.5-2.2-1.1-2.5-1.8,0-.2-.2-.6.2-1.2.3-.5.6-.7.9-.7.6-.1,2.2-.1,5.7,2.5,0,.1,0,.2,0,.4-.2,3.1-.2,6.3,0,9.4,0,.1,0,.2,0,.4-3.5,2.6-5.1,2.6-5.7,2.5ZM31.1,61.4c.2-3.8,3.2-6.7,7-6.9,0,0,0,0,.1,0-1.6,3.3-4.6,10.3-6.3,19-.5-.9-.7-1.9-.8-3-.2-3-.2-6.1,0-9.2ZM33.9,75.9c1.7-10.7,5.7-18.9,7-21.5,1.5,0,3,0,4.5,0-1.8,3.8-5.6,12.4-7,23.2,0,0-.2,0-.3,0-1.6,0-3.1-.6-4.2-1.6ZM60.9,70.6c-.2,3.4-2.6,6.1-5.9,6.8,1.1-7.9,3.5-14.5,5.2-18.6.4.8.6,1.7.7,2.7.2,3,.2,6.1,0,9.2ZM69.7,72.8c-.3.5-.6.7-.9.7-.6.1-2.2.1-5.7-2.5,0-.1,0-.2,0-.4.2-3.1.2-6.3,0-9.4,0-.1,0-.2,0-.4,3.5-2.6,5.1-2.6,5.7-2.5.3,0,.6.2.9.7.3.6.2,1,.2,1.2-.2.6-1.1,1.3-2.5,1.8-.5.2-.8.6-.8,1.1,0,.5.3.9.8,1.1,1.4.5,2.1,1.2,2.1,1.6s-.7,1.1-2.1,1.6c-.5.2-.8.6-.8,1.1,0,.5.3.9.8,1.1,1.4.5,2.2,1.1,2.5,1.8,0,.2.2.6-.2,1.2Z"/>
    <path class="cls-1" d="M18.4,32.2c5.2-.7,10.5-.7,15.7,0,0,0,.1,0,.2,0,.6,0,1.1-.4,1.2-1,0-.6-.4-1.2-1-1.3-5.4-.7-10.9-.7-16.3,0-.6,0-1.1.7-1,1.3,0,.6.7,1.1,1.3,1Z"/>
    <path class="cls-1" d="M35.4,41.3c0-.6-.7-1.1-1.3-1-5.2.7-10.5.7-15.7,0-.6,0-1.2.4-1.3,1,0,.6.4,1.2,1,1.3,2.7.4,5.4.5,8.1.5s5.4-.2,8.1-.5c.6,0,1.1-.7,1-1.3Z"/>
  </g>
</svg>