<?xml version="1.0" encoding="UTF-8"?>
<svg id="Layer_1" data-name="Layer 1" xmlns="http://www.w3.org/2000/svg" viewBox="0 0 76.7 80">
  <defs>
    <style>
      .cls-1 {
        fill: #dc2626;
      }

      .cls-1, .cls-2 {
        stroke-width: 0px;
      }

      .cls-2 {
        fill: #fdc040;
      }
    </style>
  </defs>
  <path class="cls-2" d="M62.9,35.5h-30v2l.5,1,2.5,2.5,2,1,1,1.5-.5,2-3.5,1.5-2,3.5-.5,10.5,1.5,11.5,1,3.5,2,2c.5.2,1.7.5,2.5.5s5.5.5,6.5.5h9l-1-2c-.3-.8-1-2.8-1-4s-.3-4.5-.5-6v-7.5c0-.8,1-6.7,1.5-9.5v-1.5c0-.5,1.5-.5,2-1s2-.5,2.5-.5,2-.5,2.5-.5-.5-.5-1-1,0-.5,0-1,0-1.5-.5-2,.8-1.2,1.5-1.5c.5-.2,1.5-.6,1.5-1s1-.8,1.5-1l1-1.5v-1.5l-2-.5Z"/>
  <g>
    <path class="cls-1" d="M5.9,61.6c0,2.5,2,4.5,4.5,4.5s4.5-2,4.5-4.5-2-4.5-4.5-4.5-4.5,2-4.5,4.5ZM12.7,61.6c0,1.2-1,2.2-2.2,2.2s-2.2-1-2.2-2.2,1-2.2,2.2-2.2,2.2,1,2.2,2.2Z"/>
    <path class="cls-1" d="M16.2,55.3c2,0,3.6-1.6,3.6-3.6s-1.6-3.6-3.6-3.6-3.6,1.6-3.6,3.6,1.6,3.6,3.6,3.6ZM16.2,50.5c.7,0,1.2.6,1.2,1.2s-.6,1.2-1.2,1.2-1.2-.6-1.2-1.2.6-1.2,1.2-1.2Z"/>
    <path class="cls-1" d="M28.7,70c0-2-1.6-3.6-3.6-3.6s-3.6,1.6-3.6,3.6,1.6,3.6,3.6,3.6,3.6-1.6,3.6-3.6ZM23.9,70c0-.7.6-1.2,1.2-1.2s1.2.6,1.2,1.2-.6,1.2-1.2,1.2-1.2-.6-1.2-1.2Z"/>
    <path class="cls-1" d="M75.9,50.2c-.3-2.5-2.5-4.3-4.9-4.3h-.8l.8-2.1c.2-.6,0-1.3-.7-1.5-.6-.2-1.3,0-1.5.7l-1.1,2.9h-4.9c-.2,0-.3-.2-.5-.2-1.2-.5-1.8-1.2-1.8-2.1s1.5-1.6,2.1-1.9c1.9-.8,3.3-2.5,3.6-4.5.8-4.2,1.1-8.6,1.3-10.9,0-1.2-.2-2.4-.8-3.4-3.1-5.3-8.6-8.9-10.5-10.1v-3.7h0c.6,0,1.2-.5,1.2-1.2V3.8c0-2.1-1.7-3.8-3.8-3.8h-9.3c-2.1,0-3.8,1.7-3.8,3.8v4.2c0,.6.5,1.2,1.2,1.2h0v3.7c-1.2.7-3.9,2.5-6.5,5.1v-.8c1.3-.7,2.2-2.1,2.2-3.8,0-2.4-1.9-4.3-4.3-4.3H14.7c-2.4,0-4.3,1.9-4.3,4.3s.9,3,2.2,3.8v3.6c-1.6.9-6,3.7-9.8,8.3-.7.8-1.1,1.8-1.3,2.9-.2,1.4-.5,3.8-.8,6.9,0,.6.4,1.2,1.1,1.3,0,0,0,0,.1,0,.6,0,1.1-.5,1.2-1.1.3-3,.6-5.3.7-6.8,0-.5.2-.9.5-1.3h26.6c.2,1.9.5,4.1.9,6.3.4,2,1.7,3.7,3.6,4.5.6.3,2.1,1,2.1,1.9s-.6,1.6-1.8,2.1c-2.2.8-3.7,2.8-3.9,5.1-.5,5.3-.8,15.6,2.1,24.7.2.8.6,1.5,1.1,2.1-.2,0-.5,0-.7,0H13.6c-5.7,0-10.4-4.4-10.8-10.1-.5-7.3-.5-15.3,0-23.9,0-.6-.4-1.2-1.1-1.2-.6,0-1.2.4-1.2,1.1-.6,8.7-.6,16.8,0,24.2.2,3.3,1.7,6.4,4.2,8.7,2.5,2.3,5.6,3.5,9,3.5h20.8c1.1,0,2.3-.1,3.3-.4.7.3,1.5.4,2.3.4h31c2.5,0,4.6-1.9,4.9-4.3,1.2-8.4,1.2-17,0-25.5ZM74.3,67.4c-.9.6-2,.9-3.1.9-3.3,0-6-2.7-6-6s2.7-6,6-6,2.1.3,3,.8c.2,3.4.2,6.8,0,10.2ZM65.1,26.2c-.1,1.8-.4,4.9-.8,8.2h-30.5c-.5-3.3-.7-6.4-.8-8.2,0-.7.1-1.4.5-2.1.1-.2.3-.5.4-.7h30.4c.2.2.3.5.4.7.4.6.5,1.3.5,2.1ZM15,17.7h17.9v2.6H15v-2.6ZM42.9,3.8c0-.8.7-1.5,1.5-1.5h9.3c.8,0,1.5.7,1.5,1.5v3h-12.2v-3ZM53.8,9.2v3.3h-9.7v-3.3h9.7ZM43.3,14.8h11.4c1,.6,4.7,2.9,7.7,6.3h-26.8c3-3.4,6.7-5.7,7.7-6.3ZM14.7,11.5h18.5c1.1,0,1.9.9,1.9,1.9s-.9,1.9-1.9,1.9H14.7c-1.1,0-1.9-.9-1.9-1.9s.9-1.9,1.9-1.9ZM6.4,28.7c3.4-3.5,6.8-5.5,7.7-6h17.4c0,.1-.1.2-.2.4-.6,1-.9,2.2-.8,3.4,0,.6,0,1.4.2,2.3H6.4ZM70.9,77.7h-13s-.8,0-.8,0c-1.3,0-2.4-1-2.6-2.3-.2-1.3-.3-2.7-.5-4,0-.6-.6-1.1-1.3-1.1-.6,0-1.1.6-1.1,1.3.1,1.4.3,2.7.5,4.1,0,.7.3,1.4.7,2h-13c-1.8,0-3.3-1.1-3.8-2.8-2.8-8.8-2.4-18.7-2-23.8.1-1.4,1.1-2.6,2.4-3.1,2.1-.8,3.4-2.4,3.4-4.3s-.6-2.8-3.6-4c-1.2-.5-2-1.5-2.2-2.7,0,0,0,0,0,0h29.7s0,0,0,0c-.2,1.2-1.1,2.3-2.2,2.7-2.9,1.2-3.6,2.9-3.6,4s.2,1.6.7,2.3h-1.6c-2.5,0-4.6,1.9-4.9,4.3-.8,5.5-1,11.1-.8,16.6,0,.6.6,1.1,1.2,1.1.6,0,1.1-.6,1.1-1.2-.2-5.4,0-10.9.8-16.2.2-1.3,1.3-2.3,2.6-2.3h13.8c1.3,0,2.4,1,2.6,2.3.2,1.3.3,2.6.5,3.9-.9-.3-1.8-.5-2.8-.5-4.6,0-8.3,3.7-8.3,8.3s3.7,8.3,8.3,8.3,2-.2,2.9-.5c-.1,1.8-.3,3.5-.6,5.3-.2,1.3-1.3,2.3-2.6,2.3Z"/>
  </g>
</svg>