<?xml version="1.0" encoding="UTF-8"?>
<svg id="Layer_1" data-name="Layer 1" xmlns="http://www.w3.org/2000/svg" viewBox="0 0 71.5 80">
  <defs>
    <style>
      .cls-1 {
        fill: #dc2626;
      }

      .cls-1, .cls-2 {
        stroke-width: 0px;
      }

      .cls-2 {
        fill: #fdc040;
      }
    </style>
  </defs>
  <path class="cls-2" d="M30.4,39.2c-5.7,0-14.9,5.7-18.8,8.5l1.3,1.8,2.2,1.3,2.7,3.1,2.7,2.7,2.2,4.5,3.6,2.7c2.5.3,7.7.9,8,.9s5.8-.6,8.5-.9l4.9-1.3c.4-.9,1.5-2.8,2.2-3.1.7-.4.9-1.9.9-2.7l3.1-2.7c.6-.7,1.4-2.2,0-2.2s-6.9-8.3-9.4-12.5h-14.3Z"/>
  <path class="cls-2" d="M56.7,24c.3-1.2.9-3.8.9-4.5l1.8,2.2,3.1.9h4.5l2.2,3.1v4.9h-13.9l-3.1-1.3,1.8-1.3,2.7-1.3v-2.7Z"/>
  <path class="cls-2" d="M28,8.1l-4.2-5,2.5.3h2.1c0,.1,1.4-1,1.4-1l2-1.5,1.7-.5.7,1.3v1.6s.7,1.3.7,1.3l3.7,1.7,2.7,1.4,1.9.6,1.4.5.3.6-.5,1.4-.5,1.4-.3,1-1.4-.5-1.8-2.7-12.6-1.8Z"/>
  <path class="cls-1" d="M58.4,18h-4.1c-1.6,0-3.2.4-4.6,1.2-.2,0-.4.2-.5.3h0c-1,.7-1.8,1.6-2.5,2.6-.3.5-.2,1.2.2,1.6.5.4,1.2.4,1.6,0l1.8-1.8,5.7,2.9v1l-3.8,2.5c-1.2.8-2.7.6-3.7-.4-.3-.3-.7-.4-1.2-.3-.4.1-.7.4-.9.9-.1.4,0,.9.3,1.2,1.7,1.8,4.1,2.7,6.6,2.7h6.2v2.4h-2.4c-3.3,0-6.3,2-7.6,5-1-.4-2.1-.8-3.2-1.1,1.4-1.2,1.7-3.3.6-4.8-1.1-1.5-3.1-2-4.7-1-1.6,1-2.2,3-1.4,4.6-3.4-.5-6.9-.5-10.3,0,.2-.5.4-1,.4-1.6,0-1.7-1.1-3.1-2.8-3.5-1.6-.4-3.3.4-4,1.9-.7,1.5-.3,3.3,1,4.4-1.1.3-2.2.7-3.2,1.1-1.3-3.1-4.3-5.1-7.7-5.1h-2.4v-2.4h6.2c2.5,0,4.9-1,6.6-2.7.5-.5.4-1.2,0-1.7s-1.2-.5-1.7,0c-1,1-2.5,1.1-3.7.4l-3.8-2.5v-1l5.7-2.9,1.8,1.8c.4.4,1.1.5,1.6,0,.5-.4.6-1.1.2-1.6-.7-1-1.5-1.8-2.5-2.5h0c-.1-.2-.3-.3-.5-.4-1.4-.8-3-1.2-4.6-1.2h-4.1c-7.2,0-13.1,5.9-13.1,13.1v4.8c0,4.6,3.7,8.3,8.3,8.3h5.6l-3.9,2.6c-.3.2-.5.6-.5,1,0,.4.2.8.5,1l.3.2h-3.9l-4.4-4.4-1.7,1.7,4.8,4.8c.2.2.5.3.8.3h7.7l1.4,1c.6.4,1.1.9,1.7,1.4h-3.6c-.1,0-.3,0-.4,0l-6.5,2.1-4.2-4.2-1.7,1.7,4.8,4.8c.2.2.5.3.8.3s.3,0,.4,0l7-2.3h5.6c.4.6.8,1.1,1.1,1.7l.4.7h-3.7c-.1,0-.3,0-.4,0l-7.1,2.4c-.3.1-.6.3-.7.7l-3.6,8.3,2.2.9,3.4-7.8,6.5-2.2h4.8l.3.5c.4.7.9,1.3,1.5,1.9h-5.5c-3.3,0-6,2.7-6,6v3.6c0,3.9,3.2,7.1,7.1,7.1,2.6,0,4.8-2.1,4.8-4.8s-2.1-4.8-4.8-4.8h3.6c2.8,0,5.3-2,5.8-4.8.2,0,.5,0,.7,0h13.5c.1,0,.2,0,.3,0,.6,2.8,3,4.8,5.8,4.8h3.6c-2.6,0-4.8,2.1-4.8,4.8s2.1,4.8,4.8,4.8c3.9,0,7.1-3.2,7.1-7.1v-3.6c0-3.3-2.7-6-6-6h-5.1c.7-.7,1.3-1.5,1.7-2.4h4.4l6.5,2.2,3.4,7.8,2.2-.9-3.6-8.3c-.1-.3-.4-.6-.7-.7l-7.1-2.4c-.1,0-.3,0-.4,0h-3.5c.4-.8.9-1.6,1.5-2.4h5.4l7,2.3c.1,0,.2,0,.4,0,.3,0,.6-.1.8-.3l4.8-4.8-1.7-1.7-4.2,4.2-6.5-2.1c-.1,0-.2,0-.4,0h-3.4c.4-.3.8-.7,1.2-1l1.9-1.4h7.5c.3,0,.6-.1.8-.3l4.8-4.8-1.7-1.7-4.4,4.4h-3.9l.3-.2c.3-.2.5-.6.5-1,0-.4-.2-.7-.5-1l-3.6-2.6h5.3c4.6,0,8.3-3.7,8.3-8.3v-4.8c0-7.2-5.9-13.1-13.1-13.1ZM15.5,20.4h1.7c.5,0,.9,0,1.4.1l-3,1.5v-1.6ZM14.3,69.2c0-1.5,1-2.9,2.4-3.4v4.6h-2.4v-1.2ZM21.4,75.2c0,1.3-1.1,2.4-2.4,2.4-2.6,0-4.8-2.1-4.8-4.8h4.8c1.3,0,2.4,1.1,2.4,2.4ZM44.1,34.7c.7,0,1.2.5,1.2,1.2s-.5,1.2-1.2,1.2-1.2-.5-1.2-1.2.5-1.2,1.2-1.2ZM27.4,34.7c.7,0,1.2.5,1.2,1.2s-.5,1.2-1.2,1.2-1.2-.5-1.2-1.2.5-1.2,1.2-1.2ZM9.5,35.9v6h-1.2c-3.3,0-6-2.7-6-6v-3.6h7.1v3.6ZM2.4,29.9c.6-5.4,5.2-9.5,10.7-9.5v6c0,.4.2.8.5,1l3.9,2.6H2.4ZM11.9,41.8v-4.8h2.4c2.4,0,4.6,1.5,5.5,3.7-.7.3-1.4.7-2.1,1.1h-5.8ZM22.6,68.1h-3.6v-2.4h6.9c-.5,1.4-1.9,2.4-3.4,2.4ZM54.8,69.2v-3.4c1.4.5,2.4,1.9,2.4,3.4v1.2h-2.4v-1.2ZM57.2,72.8c0,2.6-2.1,4.8-4.8,4.8s-2.4-1.1-2.4-2.4,1.1-2.4,2.4-2.4h4.8ZM52.4,65.7v2.4h-3.6c-1.5,0-2.9-1-3.4-2.4h6.9ZM58.8,47.8l-4.1,3c-2.9,2.2-5.1,5.2-6.4,8.6-.9,2.3-3.1,3.9-5.6,3.9h-13.5c-2.2,0-4.2-1.2-5.2-3.1l-2-3.5c-1.4-2.5-3.3-4.6-5.6-6.3l-3.7-2.6,3.7-2.5c12.1-8.1,28-7.9,39.9.7l2.4,1.7ZM59.6,41.8h-5.5c-.8-.4-1.5-.8-2.3-1.2.9-2.2,3.1-3.6,5.4-3.6h2.4v4.8ZM53,20.5c.4,0,.9-.1,1.4-.1h1.7v1.6l-3-1.5ZM69.1,35.9c0,3.3-2.7,6-6,6h-1.2v-9.5h7.1v3.6ZM60.8,29.9h-6.8l3.9-2.6c.3-.2.5-.6.5-1v-6c5.5,0,10,4.1,10.7,9.5h-8.3Z"/>
  <path class="cls-1" d="M29.4,47l-1.7,1.7,2.7,2.7-2.7,2.7,1.7,1.7,3.6-3.6c.5-.5.5-1.2,0-1.7l-3.6-3.6Z"/>
  <path class="cls-1" d="M42.1,47l-3.6,3.6c-.5.5-.5,1.2,0,1.7l3.6,3.6,1.7-1.7-2.7-2.7,2.7-2.7-1.7-1.7Z"/>
  <path class="cls-1" d="M50,5.5c-1.3-.2-2.6.2-3.6,1l-1.7,1.3c-.6,0-1.2-.2-1.7-.4l1-1.9c0-.2,0-.4,0-.6,0-.2-.3-.3-.5-.3-1.6-.2-3.5.7-4.2,1.1-1.3-.7-2.7-1.3-4.2-1.8l-.6-3.6c0-.3-.3-.5-.6-.5-2.6.2-5,2.1-5.8,2.8-7.2-.6-13,1.2-13.4,4.3-.4,3.3,5.4,6.6,13.3,7.6.8.1,1.7.2,2.5.2,1.5,1.4,3.4,2.3,5.5,2.6.2,0,.4,0,.5-.2.1-.2.2-.4,0-.6l-.7-2c.4,0,.8-.1,1.2-.2,1.1,1.3,2.5,2.3,4,3,.2,0,.4,0,.5,0,.2-.1.3-.3.3-.5v-3.3c.5,0,1.1,0,1.7,0h.2s1.3,1.7,1.3,1.7c.8,1,2,1.7,3.2,1.8.3,0,.6-.2.7-.5l1.3-10.5c0-.3-.2-.6-.5-.7ZM42.5,5.9l-.6,1.2c-.4-.2-.8-.3-1.2-.6.6-.3,1.2-.5,1.9-.6ZM33.5,1.2l.4,2.5c-1.3-.3-2.7-.6-4.1-.8,1.1-.8,2.3-1.4,3.7-1.7ZM32.5,14.9c.8,0,1.5,0,2.3-.1l.5,1.3c-1-.2-1.9-.6-2.7-1.2ZM38.5,14.1c0,0,.2,0,.3,0,.7-.2,1.3-.3,2-.4v2.3c-.8-.5-1.6-1.1-2.3-1.9ZM43.8,12.5c-1.8-.2-3.6,0-5.4.5-2.6.8-6.2,1-10,.6.5-.2,1-.5,1.4-.9l.8-.8c.2-.2.2-.4.2-.6,0-.2-.3-.4-.5-.4l-4.7-.6v1.2c-.1,0,3.3.4,3.3.4-1.2,1.1-3.1,1.2-4.4.1l-.6.7c-.5-.1-1.1-.3-1.6-.5l1.1-1.2c1.1-1.2,1.4-3,.7-4.5l-.5-1-1.1.5.5,1c.5,1.1.3,2.3-.5,3.2l-1.4,1.6c-3.2-1.2-5.5-2.9-5.3-4.6,0-.1,0-.2,0-.3l1.8,1.7.8-.8-1.9-1.8c1.8-1.6,6.5-2.6,12.6-1.8,3.8.5,7.3,1.5,9.6,3,1.6,1,3.4,1.6,5.2,1.9l-.4,3.5ZM49,8.4l-1.8-.2v1.2c-.1,0,1.6.2,1.6.2v1.2c-.1,0-1.9-.2-1.9-.2v1.2c-.1,0,1.6.2,1.6.2v1.2c-.1,0-1.9-.2-1.9-.2v1.2c-.1,0,1.6.2,1.6.2l-.2,1.7c-.7-.2-1.4-.7-1.9-1.3l-1.3-1.7.5-4.2,1.7-1.3c.6-.5,1.3-.7,2.1-.8l-.2,1.7Z"/>
  <path class="cls-1" d="M20.9,6.1c0,.6-.7,1.1-1.3,1-.6,0-1.1-.7-1-1.3,0-.6.7-1.1,1.3-1s1.1.7,1,1.3Z"/>
  <path class="cls-1" d="M26,7.3l15.8,1.9v1.2c-.1,0-15.9-1.9-15.9-1.9v-1.2Z"/>
</svg>