<?xml version="1.0" encoding="UTF-8"?>
<svg id="Layer_1" data-name="Layer 1" xmlns="http://www.w3.org/2000/svg" viewBox="0 0 77.8 80">
  <defs>
    <style>
      .cls-1 {
        fill: #dc2626;
      }

      .cls-1, .cls-2 {
        stroke-width: 0px;
      }

      .cls-2 {
        fill: #fdc040;
      }
    </style>
  </defs>
  <path class="cls-2" d="M23.9,69.5l-7,1.5-1.5,1-1.5,2-1,1.5,3,1c1.5.5,3.5,1,4.5,1.5.8.4,8.7.5,12.5.5,16.8-.4,29.7-12.2,34-18l6-10,2.5-9.5,1-13.5c-.8-3.5-2.5-10.6-2.5-11s-1-1.8-1.5-2.5l-3,.5-1,3.5v1c-.2,1-.5,3.1-.5,3.5s-1.3,3.8-2,5.5l-2.5,7-5,8.5-7.5,9.5-7,6.5-10.5,6-9.5,4Z"/>
  <g>
    <path class="cls-1" d="M74.5,13.6l-2.9-10.1c-.4-1.4-1.6-2.4-3-2.6l-2.2-.2c-1-.1-2,.2-2.7.9-.7.7-1.2,1.6-1.2,2.6v9.2c-1.2,4.2-2.8,8.3-4.7,12.3-.8-1.8-1.7-3.5-2.8-5.1-1.1-1.7-2.4-3.2-3.7-4.6-2.6-2.6-6.5-3.6-10-2.3-2.4.9-5,2.1-7.5,3.6-.1-3.9-1-7.3-1.8-9.5-1-2.9-2.5-5.4-3.7-6.7-1.8-1.8-4.9-1.1-6.6.6-1.4,1.4-2.2,4,.4,6.6,1.4,1.4,2.6,4.3,3.4,8.4-2.1-1.2-4.3-2.1-6.3-2.9-3.5-1.2-7.4-.3-10,2.3-.8.8-1.6,1.7-2.3,2.6-.4.5-.3,1.2.2,1.6.5.4,1.2.3,1.6-.2.7-.9,1.4-1.7,2.1-2.4,1.9-2,4.9-2.7,7.5-1.7,2.3.8,4.8,2,7.3,3.5,2.9,1.7,6.5,1.7,9.3,0,2.5-1.5,4.9-2.6,7.3-3.5,2.6-.9,5.6-.3,7.5,1.7,1.2,1.3,2.4,2.7,3.5,4.3,1.4,2.1,2.5,4.3,3.3,6.6-3.4,6.3-7.7,12.1-12.8,17.2-7.7,7.7-17.1,13.7-27.3,17.3-6.4-4-11-10.1-12.9-17.4-2-7.5-1-15.2,2.8-21.9.3-.6.1-1.3-.4-1.6-.6-.3-1.3-.1-1.6.4C0,29.9-1.1,38.2,1.1,46.3c1.9,7.2,6.3,13.5,12.4,17.7-.7.2-1.3.4-2,.6,0,0,0,0,0,0,0,0,0,0,0,0,0,0,0,0,0,0-.2,0-.4.2-.6.4l-4.1,5.2c-.4.5-.3,1.1,0,1.5l4.6,4.8c.1.1.3.2.4.3,0,0,0,0,0,0,5.5,2.1,11.4,3.2,17.3,3.2s6.6-.3,9.8-1c9.3-1.9,17.8-6.5,24.6-13.3,4.9-4.9,8.6-10.6,11-16.9.2-.6,0-1.3-.7-1.5-.6-.2-1.3,0-1.5.7-2.3,6.1-5.9,11.5-10.5,16.1-6.4,6.4-14.5,10.8-23.4,12.6-8.1,1.7-16.4,1.1-24.1-1.5l3.4-3.5c.4-.5.4-1.2,0-1.6l-3.8-3.8c11.7-3.7,22.5-10.2,31.3-18.9,9.1-9.1,15.8-20.3,19.3-32.6l8,.3c3.4,9.1,3.8,19.2,1.3,28.5-.2.6.2,1.3.8,1.4.6.2,1.3-.2,1.4-.8,2.8-10.1,2.2-20.9-1.6-30.6ZM28,18c-.9-5.5-2.3-9.4-4.3-11.4-1.2-1.2-1.3-2.3-.4-3.3,1-1,2.6-1.3,3.3-.6,1.7,1.7,4.9,8.1,4.9,15.5-1.2.2-2.4.1-3.5-.3ZM12.3,74l-3.1-3.2,2.7-3.3,3.4,3.4-3,3.1ZM65.3,3.3c.3-.2.6-.3.9-.3l2.2.2c.5,0,.9.4,1,.9l2.4,8.6-6.9-.3V4.2c0-.3.1-.7.4-.9Z"/>
    <path class="cls-1" d="M67.2,17.8c-1.8,12.6-8,24.8-17.7,34.5-8,8-17.8,13.7-28.2,16.4-.6.2-1,.8-.8,1.4.1.5.6.9,1.1.9s.2,0,.3,0c10.8-2.8,20.9-8.7,29.3-17,10-10,16.5-22.7,18.4-35.8,0-.6-.4-1.2-1-1.3-.6,0-1.2.4-1.3,1Z"/>
  </g>
</svg>