<?xml version="1.0" encoding="UTF-8"?>
<svg id="Layer_1" data-name="Layer 1" xmlns="http://www.w3.org/2000/svg" viewBox="0 0 80 80">
  <defs>
    <style>
      .cls-1 {
        fill: #dc2626;
      }

      .cls-1, .cls-2 {
        stroke-width: 0px;
      }

      .cls-2 {
        fill: #fdc040;
      }
    </style>
  </defs>
  <path class="cls-2" d="M52.5,50.5l-2,4.5,1.5,3v1.5l.5,2c.7.3,2.1,1,2.5,1s1.5.3,2,.5c0,.5,0,1.6-.5,2s-1.2.5-1.5.5c-.3.7-1,2.1-1,2.5s-.5,2-.5,2.5-1,2.2-1.5,3l.5,4.5c1.5.2,4.6.5,5,.5h8c2.7-.8,8-2.6,8-3s2-1.2,3-1.5l2-4-2-4.5-5.5-11-1-.5c-.7.2-2.1.4-2.5,0s-2-.5-2-1-1-.5-1-1-.5-1-.5-1.5v-2c0-.5.5-1,.5-1.5s1-.8,1.5-1v-1.5c-.3-.7-1-2.1-1-2.5s-1.5-1.5-2-1.5-2-.5-2.5-.5-1.8.7-2.5,1l-2,3.5-3.5,6Z"/>
  <path class="cls-2" d="M32.5,30l-8.5-.5-.5,2v4.5l.5,7c.5.2,1.7.6,2.5,1,1,.5,4,0,4.5,0s7-.5,7.5-1,1-1.5,1.5-2,.5-2,.5-2.5v-4c0-1-.5-2.5-.5-3s-1-1.2-1.5-1.5h-6Z"/>
  <g>
    <path class="cls-1" d="M79.5,68.1l-7.8-15.5c-.2-.3-.5-.6-.8-.6-.4,0-.7,0-1,.3-.6.5-1.3.8-2,.8-1.7,0-3-1.3-3-3s1-2.7,2.4-3c.4,0,.7-.3.8-.6.2-.3.2-.7,0-1l-2-3.9c-.9-1.9-2.8-3-4.9-3h0c-.2,0-.4,0-.6,0,0-2.9-.1-5.8-.2-8.6,0-2.9-.9-5.7-2.4-8.1-.3-.6-1.1-.7-1.6-.4-.6.3-.7,1.1-.4,1.6,1.3,2.1,2,4.5,2.1,7,.1,3.1.2,6.2.2,9.4-.8.5-1.5,1.3-2,2.2l-5.7,11.4c-2.2-3.4-5.3-6.1-9-6.1-6.3,0-11.1,8.1-12.3,14.3h0c-.6-3.2-2.2-6.9-4.4-9.7,0-2.2,0-4.5,0-6.7,1.2,0,2.4,0,3.6,0,3,0,6.1,0,9.1-.2,2.1-.1,3.7-1.7,4-3.7.3-2.8.3-5.6,0-8.3-.2-2-1.9-3.6-4-3.7-4.1-.2-8.2-.3-12.4-.2.6-4.8,3.6-8.9,8-11h16.6c1.2.6,2.3,1.3,3.2,2.1.2.2.5.3.8.3s.7-.1.9-.4c.4-.5.4-1.2-.1-1.7-.5-.5-1.1-.9-1.7-1.3,1-.8,1.7-2,1.7-3.4,0-2-1.3-3.7-3.2-4.2v-4.1c0-2.7-2.2-4.9-4.9-4.9h-10c-2.7,0-4.9,2.2-4.9,4.9v4.1c-1.8.5-3.2,2.2-3.2,4.2s.7,2.6,1.7,3.4c-1.8,1.2-3.3,2.7-4.5,4.5-1.8,2.6-2.7,5.6-2.9,8.8-.2,6.3-.3,12.8-.3,19.1-1.6-1.3-3.5-2.2-5.5-2.2s-5.7,1.7-8.1,4.9c-.4.5-.3,1.3.2,1.6.5.4,1.3.3,1.6-.2,1.1-1.5,3.4-4,6.2-4s4.5,1.5,6.5,4.3c1.6,2.2,2.8,5,3.4,7.6H7c.3-1.4.8-2.8,1.4-4.2.3-.6,0-1.3-.6-1.6-.6-.3-1.3,0-1.6.6-.8,1.7-1.3,3.5-1.7,5.2h-1.6c-1.7,0-3,1.4-3,3s1.4,3,3,3h.6c.2,1.8.5,3.6.8,5.3.2,1.2.5,2.5.6,3.8.2,1.7,1.6,3,3.3,3.2,3.1.3,5.8.5,8.5.5s5.5-.2,8.5-.5c.6,0,1.1-.3,1.5-.5,1.2.7,2.5,1.1,3.9,1.1h10.6,0c2.7,0,5.5-.2,8.5-.5.8,0,1.5-.4,2.1-1,2.9,1,5.9,1.5,8.9,1.5,6.1,0,12.2-2,17-5.9,1.8-1.4,2.3-3.9,1.3-5.9ZM34,4.9c0-1.4,1.1-2.5,2.5-2.5h10c1.4,0,2.5,1.1,2.5,2.5v4h-15.1v-4ZM32.8,11.2h17.5c1.1,0,2,.9,2,2s-.9,2-2,2h-17.5c-1.1,0-2-.9-2-2s.9-2,2-2ZM37.5,31.1c.9,0,1.6.7,1.7,1.6.3,2.6.3,5.2,0,7.8-.1.9-.8,1.6-1.8,1.6-4.2.2-8.4.3-12.6.2,0-3.8.1-7.6.2-11.4,4.1,0,8.3,0,12.4.2ZM58.3,42.5c.6-1.1,1.6-1.7,2.8-1.7h0c1.2,0,2.3.7,2.8,1.7l1.4,2.7c-1.7.9-2.9,2.7-2.9,4.8,0,3,2.4,5.4,5.4,5.4s1.6-.2,2.4-.5l6.6,13s0,0,0,0c-3.3,2.6-7.2,4.4-11.4,5.1-3.8.6-7.6.4-11.3-.7.3-1.7.6-3.4.8-5.1h.6c1.7,0,3-1.4,3-3s-1.4-3-3-3h-1.6c-.4-1.8-1-3.8-1.9-5.7l6.4-12.8ZM35,53.5c2-2.8,4.3-4.3,6.5-4.3s4.5,1.5,6.5,4.3c1.6,2.2,2.8,5,3.4,7.6h-19.8c.6-2.6,1.8-5.4,3.4-7.6ZM2.3,64.1c0-.4.3-.7.7-.7h52.4c.4,0,.7.3.7.7s-.3.7-.7.7H3c-.4,0-.7-.3-.7-.7ZM28.5,77.1c.1-.3.2-.5.2-.8.1-.8.2-1.7.4-2.7,0,0,0-.1.1-.1s.1,0,.1.1c.1,1,.3,1.9.4,2.7,0,.5.2.9.5,1.3-.6,0-1.1-.2-1.7-.5ZM49.8,77.1c-6,.7-10.6.7-16.5,0-.6,0-1.1-.6-1.2-1.2-.1-.8-.2-1.7-.4-2.7-.2-1.2-1.2-2.1-2.4-2.1-1.3,0-2.3.9-2.4,2.1-.1,1-.3,1.9-.4,2.7,0,.6-.6,1.1-1.2,1.2-6,.7-10.6.7-16.5,0-.6,0-1.1-.6-1.2-1.2-.2-1.3-.4-2.6-.7-3.9-.3-1.6-.6-3.3-.8-4.9h46.5c-.2,1.6-.5,3.3-.8,4.9-.2,1.3-.5,2.6-.7,3.8,0,.6-.6,1.1-1.2,1.2ZM76.7,72.2c-6.6,5.2-15.4,6.8-23.4,4.2,0,0,0,0,0-.1,0-.6.2-1.1.3-1.7,2.4.7,5,1.1,7.5,1.1s3-.1,4.5-.4c4.3-.7,8.4-2.5,11.9-5.1,0,.8-.3,1.6-.9,2.1Z"/>
    <path class="cls-1" d="M62.3,67.7c.8,1.1,2,1.9,3.3,2.2.3,0,.6,0,1,0,1,0,2.1-.3,2.9-.9,1.1-.8,1.9-2,2.2-3.3.3-1.4,0-2.8-.8-3.9-.8-1.1-2-1.9-3.3-2.2-1.4-.3-2.8,0-3.9.8-1.1.8-1.9,2-2.2,3.3-.3,1.4,0,2.8.8,3.9ZM63.7,64.2c.1-.8.6-1.4,1.2-1.8.5-.3,1-.5,1.6-.5s.4,0,.5,0c.8.1,1.4.6,1.8,1.2.4.6.6,1.4.5,2.2-.1.8-.6,1.4-1.2,1.8-.6.4-1.4.6-2.2.5-.8-.1-1.4-.6-1.8-1.2-.4-.6-.6-1.4-.5-2.2Z"/>
    <path class="cls-1" d="M57.3,60.7c.2,0,.5,0,.7,0,.8,0,1.5-.2,2.1-.7.8-.6,1.4-1.4,1.6-2.4.2-1,0-2-.6-2.8-.6-.8-1.4-1.4-2.4-1.6-2.1-.4-4.1,1-4.4,3-.4,2.1,1,4.1,3,4.4ZM56.6,56.7c.1-.8.9-1.3,1.7-1.2.4,0,.7.3.9.6.2.3.3.7.2,1.1,0,.4-.3.7-.6.9-.3.2-.7.3-1.1.2-.8-.1-1.3-.9-1.2-1.7Z"/>
  </g>
</svg>