<?xml version="1.0" encoding="UTF-8"?>
<svg id="Layer_1" data-name="Layer 1" xmlns="http://www.w3.org/2000/svg" viewBox="0 0 80 79.6">
  <defs>
    <style>
      .cls-1 {
        fill: #dc2626;
      }

      .cls-1, .cls-2 {
        stroke-width: 0px;
      }

      .cls-2 {
        fill: #fdc040;
      }
    </style>
  </defs>
  <path class="cls-2" d="M10,30.8l-1-5.5v-5c.2-1.2.6-3.5,1-3.5s3-1,5-1.5l4-.5c1,0,1.5,0,6.5-1,.4,0,3-.5,4-.5l-1.5-2,2,2,2,2,.5,1.5c-.7.2-2.2.5-3,.5h-4l-2,1v1.5c0,.4-.3,3.8-.5,5.5l-.5,5-2,.5h-10.5Z"/>
  <path class="cls-2" d="M47,17.3l2-2.5,6.5-4.5,7.5-3c2.3-.7,7.6-1.7,10-.5,3,1.5,3.5,2,6,6.5-.2,3.5-.8,10.8-2,12l-2.5,4.5-1.5,1h-22v-3.5c0-.5-.5-4-.5-4.5v-3l-.5-2-1-.5h-2Z"/>
  <path class="cls-1" d="M57.4,13.7c-.7.7-1.1,1.6-1.1,2.6s.4,1.9,1.1,2.6l8.5,8.5c.7.7,1.6,1.1,2.6,1.1s1.9-.4,2.6-1.1c.7-.7,1.1-1.6,1.1-2.6s-.4-1.9-1.1-2.6l-8.5-8.5c-1.4-1.4-3.8-1.4-5.2,0ZM69.5,23.9c.3.3.4.6.4.9s-.1.7-.4.9c-.3.3-.6.4-.9.4s-.7-.1-.9-.4l-8.5-8.5c-.3-.3-.4-.6-.4-.9s.1-.7.4-.9c.3-.3.6-.4.9-.4s.7.1.9.4l8.5,8.5Z"/>
  <path class="cls-1" d="M79.7,35.3c-.5-2.4-2.2-4.4-4.5-5.2,5.5-9.2,6.3-17.9,1.9-22.3-1.9-1.9-4.8-2.9-8.2-2.9-.6,0-1.2.5-1.2,1.2,0,.6.5,1.2,1.2,1.2s0,0,0,0c2.8,0,4.9.7,6.5,2.2,2.3,2.3,2.4,5.9,2,8.4-.5,3.6-2.1,7.7-4.7,11.8-6.8-.1-13.5-.2-20.3-.3,0-4-.3-8-.7-12,0-.5-.5-1-1-1-.3,0-.7,0-1-.1,4.9-4.2,10.2-7.1,15.1-8.4.6-.2,1-.8.8-1.4-.2-.6-.8-1-1.4-.8-1.9.5-3.8,1.2-5.7,2.1.4-1.6.6-3.6-.2-5.1-.4-.9-1.2-1.5-2.1-1.7-1.4-.4-3.5-.2-5.9,2.9-.1.2-.2.3-.3.5,0,0,0,0,0-.1-.5-1.5-1.7-4.1-4.6-4.1s-1.9.4-2.6,1.2c-.9,1-1.2,2.5-1.4,4.1-1-1.3-2.3-2.4-3.6-2.4s-1.7.4-2.2,1.3c-1.5,2.1-1.5,6.7-.1,11.6-.4,0-.7,0-1.1,0-2.3-2.7-5.1-4.5-6.3-5.3v-2.6c.6,0,1-.6,1-1.2v-3.3c0-1.8-1.5-3.2-3.2-3.2h-7.3c-1.8,0-3.2,1.5-3.2,3.2v3.3c0,.6.4,1.1,1,1.2v2.6c-1.6,1-5.8,3.8-8.2,7.9-.5.8-.7,1.8-.6,2.8.1,1.8.4,5.3,1,8.6-.5,0-1,0-1.4,0-3.3,0-6.1,2.4-6.7,5.6-.4,1.9-.4,3.8,0,5.6.5,2.3,2.1,4.3,4.3,5.1.1,2.4.3,5.8.7,9.6-1,2.7-1.9,5.5-2.8,8.2-.8,2.4.3,5,2.5,6.1.8.4,1.7.7,2.6,1,.8,2.4,2.3,4.4,4.4,6,2.2,1.7,4.9,2.6,7.7,2.6h40.6c2.8,0,5.5-.9,7.7-2.6,2-1.5,3.5-3.6,4.4-6,.9-.2,1.8-.6,2.6-1,2.2-1.1,3.3-3.7,2.5-6.1-.9-2.7-1.9-5.5-2.8-8.2.4-3.9.6-7.2.7-9.6,2.2-.9,3.9-2.8,4.3-5.1.4-1.9.4-3.8,0-5.6ZM49.4,18.6c.4,3.6.6,7.2.6,10.8-8.7,0-17.4,0-26.1,0,0-3.6.2-7.2.6-10.9,8.2-.8,16.6-.8,24.8,0ZM37.5,5.4c0-.1.2-.3.3-.3.8,0,2.6,2.4,3.9,5.3.2.5.7.8,1.3.7.6,0,1-.6,1-1.2s0-.1,0-.2c-.6-4,0-6.4.6-7.1.2-.2.4-.4.8-.4,2.7,0,2.8,5.4,2.8,5.4,0,.6.4,1,.9,1.1.5.1,1.1-.2,1.3-.7.8-1.9,3.2-5.6,5.2-5.1.3,0,.5.2.6.5.5,1,.2,3.3-.6,5.6-3.1,1.8-6.2,4.1-9.1,6.7-2.8-.2-5.6-.3-8.5-.3-1.6-5.1-1.3-9-.4-10.2ZM25.7,9.9h-7.1v-2.1h7.1v2.1h0ZM18.5,2.5h7.3c.5,0,.9.4.9.9v2.1h-9.1v-2.1c0-.5.4-.9.9-.9ZM10.8,29.3c-.6-3.2-.9-6.6-1-8.3,0-.5,0-1,.3-1.5,2.2-3.9,6.6-6.6,7.6-7.2h8.8c.7.4,2.7,1.7,4.6,3.5-2.6.1-5.2.3-7.8.6-.5,0-1,.5-1,1-.5,4-.7,8.1-.7,12.1-3.6,0-7.2,0-10.8.1,0-.1,0-.2,0-.4ZM7,46.6s0,0,0,0h0c.5,0,1.1,0,1.6,0-.5,1.3-.9,2.5-1.4,3.8-.1-1.4-.2-2.7-.2-3.8ZM60.3,77.2H19.7c-4.1,0-7.9-2.5-9.6-6.2,1.5-.4,2.9-1.5,3.5-3.1.7-1.7,1.3-3.3,1.9-4.8.2-.6,0-1.3-.7-1.5-.6-.2-1.3,0-1.5.7-.6,1.5-1.2,3.1-1.9,4.8-.5,1.2-1.8,1.9-3.1,1.6-.8-.2-1.6-.5-2.3-.8-1.2-.6-1.7-2-1.3-3.2,3-8.9,6.3-17.9,9.7-26.8.5-1.2,1.8-1.9,3.1-1.7.8.2,1.6.5,2.3.8,1.2.6,1.7,2,1.3,3.2-2,5.9-4.1,11.8-6.2,17.6-.2.6,0,1.3.7,1.5s1.3,0,1.5-.7c1.5-4,2.9-8,4.3-12,6.2,0,12.4.1,18.6.1s12.4,0,18.6-.1c2.5,7.1,5.1,14.2,7.8,21.2.6,1.6,1.9,2.7,3.5,3.1-1.7,3.7-5.4,6.2-9.6,6.2ZM74,67.9c-.7.4-1.5.7-2.3.8-1.3.3-2.6-.4-3.1-1.7-3.5-8.8-6.7-17.8-9.7-26.8-.4-1.3.1-2.7,1.3-3.2.7-.4,1.5-.7,2.3-.8.2,0,.4,0,.6,0,1.1,0,2.1.7,2.5,1.7,3.5,8.8,6.7,17.8,9.7,26.8.4,1.3-.1,2.7-1.3,3.2ZM71.4,46.6c.5,0,1,0,1.6,0h0s0,0,0,0c0,1.1-.1,2.4-.2,3.8-.5-1.3-.9-2.5-1.4-3.8ZM77.4,40.5c-.4,1.8-1.7,3.2-3.4,3.6-.3,0-.7.1-1,.1h0c-.8,0-1.6,0-2.4,0-.9-2.4-1.8-4.8-2.8-7.2-.9-2.3-3.4-3.6-5.8-3.1-1,.2-1.9.6-2.8,1-2.2,1.1-3.3,3.7-2.5,6.1.4,1.1.8,2.2,1.1,3.3-11.8.1-23.7.1-35.5,0,.4-1.1.8-2.2,1.1-3.3.8-2.4-.3-5-2.5-6.1-.9-.5-1.9-.8-2.8-1-2.4-.6-4.9.8-5.8,3.1-.9,2.4-1.9,4.8-2.8,7.2-.8,0-1.6,0-2.4,0h0c-.4,0-.7,0-1-.1-1.7-.4-3.1-1.8-3.4-3.6-.3-1.6-.3-3.1,0-4.7.4-2.1,2.3-3.7,4.5-3.7,21.9-.4,44-.4,65.9,0,2.2,0,4.1,1.6,4.5,3.7.3,1.6.3,3.1,0,4.7Z"/>
  <path class="cls-1" d="M24.5,50.9h0c-2.7,0-4.8,2.1-4.9,4.8,0,3.2,0,6.4,0,9.6,0,2.7,2.2,4.8,4.9,4.8h0c2.7,0,4.8-2.1,4.9-4.8,0-3.2,0-6.4,0-9.6,0-2.7-2.2-4.8-4.9-4.8ZM27.1,65.2c0,1.4-1.2,2.5-2.6,2.5h0c-1.4,0-2.6-1.1-2.6-2.5,0-3.1,0-6.3,0-9.4,0-1.4,1.2-2.5,2.6-2.5h0c1.4,0,2.6,1.1,2.6,2.5,0,3.1,0,6.3,0,9.4Z"/>
  <path class="cls-1" d="M40,50.9h0c-2.7,0-4.8,2.1-4.9,4.8,0,3.2,0,6.4,0,9.6,0,2.7,2.2,4.8,4.9,4.8h0c2.7,0,4.8-2.1,4.9-4.8,0-3.2,0-6.4,0-9.6,0-2.7-2.2-4.8-4.9-4.8ZM42.6,65.2c0,1.4-1.2,2.5-2.6,2.5h0c-1.4,0-2.6-1.1-2.6-2.5,0-3.1,0-6.3,0-9.4,0-1.4,1.2-2.5,2.6-2.5h0c1.4,0,2.6,1.1,2.6,2.5,0,3.1,0,6.3,0,9.4Z"/>
  <path class="cls-1" d="M55.6,50.9h0c-2.7,0-4.8,2.1-4.9,4.8,0,3.2,0,6.4,0,9.6,0,2.7,2.2,4.8,4.9,4.8h0c2.7,0,4.8-2.1,4.9-4.8,0-3.2,0-6.4,0-9.6,0-2.7-2.2-4.8-4.9-4.8ZM58.2,65.2c0,1.4-1.2,2.5-2.6,2.5h0c-1.4,0-2.6-1.1-2.6-2.5,0-3.1,0-6.3,0-9.4,0-1.4,1.2-2.5,2.6-2.5h0c1.4,0,2.6,1.1,2.6,2.5,0,3.1,0,6.3,0,9.4Z"/>
</svg>