<?xml version="1.0" encoding="UTF-8"?>
<svg id="Layer_1" data-name="Layer 1" xmlns="http://www.w3.org/2000/svg" viewBox="0 0 69.2 69.2">
  <defs>
    <style>
      .cls-1 {
        stroke-width: 0px;
      }

      .cls-1, .cls-2 {
        fill: #dc2626;
      }

      .cls-2 {
        stroke: #000;
        stroke-linecap: round;
        stroke-linejoin: round;
      }
    </style>
  </defs>
  <path class="cls-1" d="M50.8,65.3c-.7,0-1.3.5-1.3,1.2h-10.2l-1.6-9.7,1.8-1.8c.3-.3.4-.6.4-1s-.1-.7-.4-1l-1.6-1.6h2.7c3,0,5.7,1.5,7.4,3.9.4.6,1.3.8,1.9.4.6-.4.8-1.3.4-1.9-2.1-3.2-5.7-5.1-9.5-5.1,1.3-1.4,2.1-3.4,2.1-5.5v-2c0-4.5-3.7-8.2-8.2-8.2s-8.2,3.7-8.2,8.2v2c0,2.1.8,4,2.1,5.5-6.3,0-11.5,5.2-11.5,11.6v7.4c0,.7.6,1.4,1.4,1.4h32.4c.7,0,1.4-.6,1.4-1.4v-1.2c0-.7-.6-1.4-1.4-1.4ZM34.6,56.1l-2-2,2-2,2,2-2,2ZM33.9,59.1c.2.1.5.2.7.2s.5,0,.7-.2l1.2,7.4h-3.8l1.2-7.4ZM29.1,41.4c0-3,2.5-5.5,5.5-5.5s5.5,2.5,5.5,5.5v2c0,3-2.5,5.5-5.5,5.5s-5.5-2.5-5.5-5.5v-2ZM19.8,60.4c0-4.9,4-8.9,8.9-8.9h2.7l-1.6,1.6c-.3.3-.4.6-.4,1s.1.7.4,1l1.8,1.8-1.6,9.7h-10.2v-6.1h0Z"/>
  <path class="cls-2" d="M27.4,1.5c.4,0,9.5.3,14,.5v14.5l-14-.5V1.5Z"/>
  <path class="cls-2" d="M59.4,2l-7,13h15l-7-12.5-1-.5Z"/>
  <path class="cls-1" d="M17.3,8.6C17.3,3.9,13.4,0,8.6,0S0,3.9,0,8.6s3.9,8.6,8.6,8.6,8.6-3.9,8.6-8.6ZM2.7,8.6c0-3.3,2.7-5.9,5.9-5.9s5.9,2.7,5.9,5.9-2.7,5.9-5.9,5.9-5.9-2.7-5.9-5.9Z"/>
  <path class="cls-1" d="M27.3,17.3h14.6c.7,0,1.4-.6,1.4-1.4V1.4c0-.7-.6-1.4-1.4-1.4h-14.6c-.7,0-1.4.6-1.4,1.4v14.6c0,.7.6,1.4,1.4,1.4ZM28.7,2.7h11.9v11.9h-11.9V2.7Z"/>
  <path class="cls-1" d="M69,14.7l-7.8-13.5c-.2-.4-.7-.7-1.2-.7s-.9.3-1.2.7l-7.8,13.5c-.2.4-.2.9,0,1.4.2.4.7.7,1.2.7h15.6c.5,0,.9-.3,1.2-.7.2-.4.2-.9,0-1.4ZM54.6,14l5.5-9.5,5.5,9.5h-10.9Z"/>
  <path class="cls-1" d="M34.6,30.6c.7,0,1.4-.6,1.4-1.4v-3.9h0c.3.4.7.6,1.1.6s.5,0,.8-.3c.6-.4.7-1.3.3-1.9l-2.5-3.5c-.3-.4-.7-.6-1.1-.6s-.8.2-1.1.6l-2.5,3.5c-.4.6-.3,1.5.3,1.9s1.5.3,1.9-.3h0c0,0,0,3.8,0,3.8,0,.7.6,1.4,1.4,1.4Z"/>
  <path class="cls-1" d="M23.5,41.5c0-.7-.6-1.4-1.4-1.4h-12.1v-14.8h0c.3.4.7.6,1.1.6s.5,0,.8-.3c.6-.4.7-1.3.3-1.9l-2.5-3.5c-.3-.4-.7-.6-1.1-.6s-.8.2-1.1.6l-2.5,3.5c-.4.6-.3,1.5.3,1.9.6.4,1.5.3,1.9-.3h0c0,0,0,16.1,0,16.1,0,.7.6,1.4,1.4,1.4h13.5c.7,0,1.4-.6,1.4-1.4Z"/>
  <path class="cls-1" d="M61.6,20.4c-.3-.4-.7-.6-1.1-.6s-.8.2-1.1.6l-2.5,3.5c-.4.6-.3,1.5.3,1.9.6.4,1.5.3,1.9-.3h0c0,0,0,14.7,0,14.7h-12.1c-.7,0-1.4.6-1.4,1.4s.6,1.4,1.4,1.4h13.5c.7,0,1.4-.6,1.4-1.4v-16.2h0c.3.4.7.6,1.1.6s.5,0,.8-.3c.6-.4.7-1.3.3-1.9l-2.5-3.5Z"/>
  <path class="cls-1" d="M50.8,61.9c.7,0,1.4-.6,1.4-1.4s-.6-1.4-1.4-1.4-1.4.6-1.4,1.4.6,1.4,1.4,1.4Z"/>
</svg>