<?xml version="1.0" encoding="UTF-8"?>
<svg id="Layer_1" data-name="Layer 1" xmlns="http://www.w3.org/2000/svg" viewBox="0 0 70 62.6">
  <defs>
    <style>
      .cls-1 {
        fill: #dc2626;
      }

      .cls-1, .cls-2 {
        stroke-width: 0px;
      }

      .cls-2 {
        fill: #fdc040;
      }
    </style>
  </defs>
  <path class="cls-2" d="M44,1.7h-10l-12,12,6,3.5,6-6,12.5,12.5,4.5,5.5,6.5,1,3-5.5V5.7l-5-4h-11.5Z"/>
  <g>
    <path class="cls-1" d="M65.4,10.9h-2.7v-4.9c0-3.3-2.7-6-6-6h-20.8s0,0,0,0c-1.2,0-2.3.5-3.1,1.3L1.7,32.3c-1.1,1.1-1.7,2.6-1.7,4.2s.6,3.1,1.7,4.2l20.1,20.1c1.2,1.2,2.7,1.7,4.2,1.7s3.1-.6,4.2-1.7l19.5-19.5c.5-.5.5-1.4,0-1.9-.5-.5-1.4-.5-1.9,0l-19.5,19.5c-1.3,1.3-3.3,1.3-4.6,0L3.7,38.8c-.6-.6-.9-1.4-.9-2.3s.3-1.7.9-2.3L34.7,3.2c.3-.3.7-.5,1.2-.5h20.8c1.8,0,3.2,1.5,3.2,3.2v11.5h-6.2c-.5,0-1-.2-1.4-.6.6-.2,1.1-.6,1.6-1.1,2-2,2-5.2,0-7.1-2-2-5.2-2-7.1,0-2,2-2,5.2,0,7.1.7.7,1.6,1.2,2.6,1.4.7,1.7,2.4,3,4.3,3h6.2v6.6c0,.5-.2.9-.5,1.2l-3.8,3.8c-.5.5-.5,1.4,0,1.9.5.5,1.4.5,1.9,0l3.8-3.8c.8-.8,1.3-1.9,1.3-3.1v-6.6h2.7c2.6,0,4.6-2.1,4.6-4.6s-2.1-4.6-4.6-4.6ZM48.7,10.6c.4-.4,1-.7,1.6-.7s1.2.2,1.6.7c.1.1.3.3.4.5-1.5.5-2.7,1.7-3.1,3.2-.2-.1-.4-.2-.5-.4-.9-.9-.9-2.4,0-3.3ZM65.4,17.4h-2.7v-3.8h2.7c1.1,0,1.9.9,1.9,1.9s-.9,1.9-1.9,1.9Z"/>
    <path class="cls-1" d="M22.1,34.5c.2.6.7,1,1.3,1s.2,0,.4,0l14-3.9c.7-.2,1.2-1,1-1.7-.2-.7-1-1.2-1.7-1l-14,3.9c-.7.2-1.2,1-1,1.7Z"/>
    <path class="cls-1" d="M28.2,36.3c-.8.8-1.2,1.8-1.2,2.9s.4,2.1,1.2,2.9c.8.8,1.8,1.2,2.9,1.2s2.1-.4,2.9-1.2c1.6-1.6,1.6-4.1,0-5.7s-4.1-1.6-5.7,0ZM32,40.1c-.5.5-1.3.5-1.8,0-.2-.2-.4-.6-.4-.9s.1-.7.4-.9c.3-.3.6-.4.9-.4s.7.1.9.4c.5.5.5,1.3,0,1.8Z"/>
    <path class="cls-1" d="M34.6,28.2c1.6-1.6,1.6-4.1,0-5.7-.8-.8-1.8-1.2-2.9-1.2s-2.1.4-2.9,1.2c-1.6,1.6-1.6,4.1,0,5.7.8.8,1.8,1.2,2.9,1.2s2.1-.4,2.9-1.2ZM30.9,24.4c.2-.2.6-.4.9-.4s.7.1.9.4c.5.5.5,1.3,0,1.8-.5.5-1.3.5-1.8,0-.5-.5-.5-1.3,0-1.8Z"/>
    <path class="cls-1" d="M13.6,31.7c-.5-.5-1.4-.5-1.9,0l-3.9,3.9c-.3.3-.4.6-.4,1s.1.7.4,1l17.3,17.3c.3.3.6.4,1,.4s.7-.1,1-.4l25.9-25.9c.5-.5.5-1.4,0-1.9l-17.3-17.3c-.3-.3-.6-.4-1-.4s-.7.1-1,.4l-14.3,14.3c-.5.5-.5,1.4,0,1.9.5.5,1.4.5,1.9,0l13.3-13.3,15.4,15.4-24,24-15.4-15.4,2.9-2.9c.5-.5.5-1.4,0-1.9Z"/>
    <path class="cls-1" d="M52.7,35.1c-.4,0-.7.1-1,.4-.3.3-.4.6-.4,1s.1.7.4,1c.3.3.6.4,1,.4s.7-.1,1-.4c.3-.3.4-.6.4-1s-.1-.7-.4-1c-.3-.3-.6-.4-1-.4Z"/>
    <path class="cls-1" d="M17.5,29.7c.3-.3.4-.6.4-1s-.1-.7-.4-1c-.3-.3-.6-.4-1-.4s-.7.1-1,.4c-.3.3-.4.6-.4,1s.1.7.4,1c.3.3.6.4,1,.4s.7-.1,1-.4Z"/>
  </g>
</svg>