<?xml version="1.0" encoding="UTF-8"?>
<svg id="Layer_1" data-name="Layer 1" xmlns="http://www.w3.org/2000/svg" viewBox="0 0 68.6 70">
  <defs>
    <style>
      .cls-1 {
        fill: #dc2626;
      }

      .cls-1, .cls-2 {
        stroke-width: 0px;
      }

      .cls-2 {
        fill: #fdc040;
      }
    </style>
  </defs>
  <path class="cls-2" d="M43.7,33.4l3.5-5.5,5-2.5c.7-.2,2.1-.4,2.5,0s6.2,8.2,9,12l2.5,4.5c-.5,1-1.6,3.1-2,3.5s-4.2,2.2-6,3c-1,.2-3.1.5-3.5.5s-5.2-6.3-7.5-9.5l-2.6-4.5-.9-1.5Z"/>
  <path class="cls-2" d="M54.7,48.9c-.4,0-5.2-6.3-7.5-9.5l-2.6-4.5h-6.9c-.5,0-3,1-4,1.5l-3,1.5c-1,.5-2,1.5-2.5,2s-1.5,2-1.5,2.5,0,1.5.5,2,1.5,1,2,1h3c.8,0,3-1,4-1.5.3.2,1.1.6,1.5,1s3.8,2.8,5.5,4l4,4c.7.3,2.1.9,2.5.5s1.8-1.5,2.5-2l1.5-1,1-1.5Z"/>
  <path class="cls-2" d="M14.7,54.4c0,.8,1.3,2.3,2,3l3.5,3,2,1.5,2,2c.7.3,2,1.1,2,1.5s2,.8,3,1c.5-.3,1.6-1.1,2-1.5q.5-.5.5-1.5c0-1,0-2-.5-3s-.5-3-1-3.5-2.5-1.5-2.5-2-1.5-2.5-2-3-1.5-2.5-2-3-2-1.5-3-1-4,3-4.5,3.5c-.4.4-1.2,2.2-1.5,3Z"/>
  <path class="cls-2" d="M24.2,5.3c3,4.2,11.6,12.3,22,11.5l-2,6-3,2.5-9.5,3-7.5-2.5-4.5-8,.5-6.5,2.5-4.5,1.5-1.5Z"/>
  <path class="cls-1" d="M33.2,18.2c-.5,0-1.2,0-1.6-.6-.2-.2-.3-.3-.4-.5-1.1-1.1-2.9.4-1.8,1.9l.3.3c.2.2.5.5.9.8.4.3.9.5,1.5.6v1.9c0,.7.5,1.2,1.2,1.2s1.2-.5,1.2-1.2v-1.9c.9-.2,1.6-.6,2.2-1.3.6-.6.9-1.5.9-2.6s-.1-1.3-.4-1.8c-.3-.5-.6-.8-1-1-.4-.2-.9-.4-1.4-.5-.5-.1-.9-.2-1.3-.3-.4,0-.8-.2-1-.4-.3-.2-.4-.4-.4-.7,0-1.4,2.1-1.3,3-.5,1.4,1.2,2.9-1,1.3-2.1l-.2-.2c-.1,0-.3-.2-.7-.4-.3-.2-.7-.3-1-.3v-1.7c0-.7-.5-1.2-1.2-1.2s-1.2.5-1.2,1.2v1.7c-.9.2-1.6.6-2.1,1.3-.5.7-.8,1.4-.8,2.2s.2,1.5.6,2c.4.5.8.9,1.4,1.1.5.2,1.1.4,1.6.5.5.1,1,.3,1.4.4.4.2.6.4.6.7,0,.8-.5,1.3-1.5,1.3Z"/>
  <path class="cls-1" d="M67.8,39.5l-11.2-14.4c-.8-1-1.9-1.5-3.1-1.5s-1.7.3-2.4.8l-7.3,5.6c-.8.6-1.4,1.6-1.5,2.6,0,.2,0,.3,0,.5-2.8-.2-5.7,0-8.5,1.8h-.1c0,0-7.1-1-7.1-1,0-.2,0-.5,0-.7-.1-1-.7-2-1.5-2.6l-7.3-5.6c-1.7-1.3-4.2-1-5.5.7l-2.7,3.4c-.5.6-.4,1.5.2,1.9.6.5,1.5.4,1.9-.2l2.7-3.4c.4-.5,1.2-.6,1.7-.2l7.3,5.6c.2.2.4.5.4.8,0,.3,0,.6-.2.9l-11.2,14.4c-.4.5-1.2.6-1.7.2l-7.3-5.6c-.2-.2-.4-.5-.4-.8,0-.3,0-.6.2-.9l1.9-2.4c.5-.6.4-1.5-.2-1.9-.6-.5-1.5-.4-1.9.2l-1.9,2.4c-.6.8-.9,1.9-.8,2.9.1,1,.7,2,1.5,2.6l7.3,5.6c.7.5,1.6.8,2.4.8.5,0,1,0,1.4-.3l.9,1.3c-.5.9-.6,2.1-.2,3.2.6,1.6,2,2.6,3.5,2.7,0,.2.1.4.2.7.6,1.5,2,2.5,3.5,2.6,0,0,0,0,0,.1.3,1.4,1.3,2.6,2.7,3,.3.1.7.2,1,.2.1.6.4,1.1.8,1.6.7.7,1.6,1.2,2.7,1.2.8,0,1.6-.3,2.4-.8l1.6,1.5c.8.7,1.8,1.1,2.8,1.1,1,0,2-.4,2.8-1.1.5-.5.8-1,1-1.6.4.1.8.2,1.1.2,1,0,1.9-.4,2.6-1.1.5-.5.9-1.3,1.1-2,0,0,.1,0,.2,0,0,0,0,0,0,0,1.1,0,2.1-.4,2.9-1.2.5-.5.9-1.2,1-1.8.3,0,.5,0,.8,0s.7,0,1-.1c1.3-.3,2.3-1.4,2.7-2.7.3-1.2,0-2.5-.8-3.7,2.2-1.7,3-2.6,4-4.2.7.5,1.5.8,2.4.8s1.7-.3,2.4-.8l7.3-5.6c.8-.6,1.4-1.6,1.5-2.6.1-1-.1-2.1-.8-2.9ZM17.7,55.8c-.2.2-.4.3-.6.3-.4,0-.9-.4-1-.9-.2-.5,0-.8.2-1.1h0s0,0,0,0l4.6-4.1c.4-.3.8-.5,1.1-.5.5,0,.9.4,1,.8.1.4,0,.7-.3,1l-.8.7h0s0,0,0,0c0,0,0,0,0,0l-4.2,3.8ZM21.4,59.1c-.2.2-.4.3-.6.3-.4,0-.9-.4-1.1-.9-.2-.6,0-.8.1-.9,0,0,.1-.1.2-.2h0s0,0,0,0c.3-.2,2.6-2.3,3.7-3.4h0c.4-.4.8-.6,1.1-.6.5,0,1,.4,1.1.8.1.4,0,.7-.3,1l-.3.3s0,0,0,0h0s-4.1,3.6-4.1,3.6ZM25.5,62.1s0,0,0,0l-.3.3c-.3.3-.6.3-.9.2-.4-.1-.8-.5-.9-1,0-.4,0-.7.4-1l.5-.4s0,0,0,0l3-2.6c.7-.6,1.4-.7,1.9-.2,0,0,.6.7,0,1.4l-1.8,1.7s0,0,0,0c0,0,0,0,0,0l-1.7,1.5s0,0,0,0ZM27.3,65.2c-.1-.2-.4-.6,0-1l1.8-1.7c.1-.1.3-.2.4-.3,0,0,0,0,0,0,.7-.4,1.1,0,1.3.2.1.2.3.6-.1,1l-1.3,1.1s0,0,0,0l-.5.5c-.9.8-1.5.3-1.6.2ZM49.1,57.9c0,.3-.3.6-.7.7-.6.1-1.3-.2-2-.9,0,0-.1-.1-.2-.2l-5.2-5.1c-.5-.5-1.4-.5-1.9,0-.5.5-.5,1.4,0,1.9l5.2,5.1s0,0,0,0c.2.2.3.5.3.8,0,.3-.1.6-.3.9-.2.2-.6.4-.9.4s0,0,0,0c-.3,0-.6-.1-.8-.3,0-.1-.2-.2-.3-.3l-3.8-3.8c-.5-.5-1.4-.5-1.9,0-.5.5-.5,1.4,0,1.9l3.6,3.6c0,0,0,.1.1.2l.2.2c.2.4,0,1-.3,1.4-.6.6-1.4,0-2-.5l-1.6-1.5c-.6-.5-1.4-.5-1.9,0-.5.6-.5,1.4,0,1.9l1.2,1.2s0,0,0,0c0,0,0,0,0,.2,0,.3-.2.8-.5,1.1-.5.5-1.2.4-1.7,0l-1.4-1.3h.2c1.3-1.4,1.6-3.2.5-4.7-.3-.5-.8-.9-1.2-1.1.7-1.3.5-2.9-.6-4.1-.6-.7-1.5-1.1-2.4-1.3,0-.3-.1-.7-.2-1-.5-1.2-1.5-2.2-2.7-2.5,0-.5,0-1.1-.2-1.7-.6-1.5-2-2.5-3.6-2.5s-2.1.4-3,1.2l-3.5,3.1-.8-1.1,10.5-13.4,4.8.7-.7.5c-3.9,2.5-4.2,5.5-3.1,7.4.8,1.5,2.5,2.4,4.2,2.4.7,0,1.5-.1,2.2-.5,0,0,0,0,0,0l3.6-1.8,2.1,1.9s0,0,0,0c0,0,0,0,0,0l9.7,8.6c.8.7,1.2,1.6,1.1,2.2ZM49,52.9l-8.8-7.8-2.8-2.5c-.4-.4-1-.5-1.5-.2l-4.4,2.2c-1.2.5-2.4,0-2.8-.7-.6-1,.3-2.5,2.2-3.7l4.3-2.8c2.3-1.5,4.8-1.6,8.2-1.3l9.7,12.5c-1,1.8-1.6,2.4-4.1,4.4ZM65.8,42c0,.3-.2.6-.4.8l-7.3,5.6c-.3.2-.5.2-.7.2-.4,0-.7-.2-1-.5l-11.2-14.4c-.2-.2-.3-.6-.2-.9,0-.3.2-.6.4-.8l7.3-5.6c.3-.2.5-.2.7-.2.4,0,.7.2,1,.5l11.2,14.4c.2.2.3.6.2.9Z"/>
  <path class="cls-1" d="M26.2,28c2.2,1.2,4.6,1.8,7.1,1.8,8.2,0,14.8-6.7,14.8-14.9s-3.3-11-8.5-13.5c-2-.9-4.1-1.4-6.3-1.4-8.2,0-14.8,6.7-14.8,14.9s3,10.5,7.8,13.1ZM33.3,2.8c1.8,0,3.5.4,5.2,1.2,4.2,2,6.9,6.3,6.9,11,0,6.7-5.4,12.1-12.1,12.1s-4-.5-5.7-1.5c-3.9-2.1-6.3-6.2-6.3-10.7,0-6.7,5.4-12.1,12.1-12.1Z"/>
  <path class="cls-1" d="M6.3,35.2c.3.2.6.3.9.3s.8-.2,1.1-.5h0c.5-.6.4-1.5-.2-2-.6-.5-1.5-.4-1.9.2h0c-.5.6-.4,1.5.2,2Z"/>
</svg>