<?xml version="1.0" encoding="UTF-8"?>
<svg id="Layer_1" data-name="Layer 1" xmlns="http://www.w3.org/2000/svg" viewBox="0 0 17 14.2">
  <defs>
    <style>
      .cls-1 {
        fill: #dc2626;
        stroke-width: 0px;
      }
    </style>
  </defs>
  <path class="cls-1" d="M14.9,7.4v-1c0-1.7-.7-3.3-1.9-4.5-1.2-1.2-2.8-1.9-4.5-1.9s-3.3.7-4.5,1.9c-1.2,1.2-1.9,2.8-1.9,4.5v1c-.7.3-1.4.9-1.7,1.6-.4.7-.5,1.6-.3,2.3.2.8.6,1.5,1.2,2,.6.5,1.4.8,2.2.8h1.4v-7.1h-1.4v-.7c0-1.3.5-2.6,1.5-3.5.9-.9,2.2-1.5,3.5-1.5s2.6.5,3.5,1.5c.9.9,1.5,2.2,1.5,3.5v.7h-1.4v5.7h-2.8v1.4h4.3c.8,0,1.6-.3,2.2-.8.6-.5,1.1-1.2,1.2-2,.2-.8,0-1.6-.3-2.3-.4-.7-1-1.3-1.7-1.6ZM3.5,12.8c-.6,0-1.1-.2-1.5-.6-.4-.4-.6-.9-.6-1.5s.2-1.1.6-1.5c.4-.4.9-.6,1.5-.6v4.3ZM13.5,12.8v-4.3c.6,0,1.1.2,1.5.6.4.4.6.9.6,1.5s-.2,1.1-.6,1.5c-.4.4-.9.6-1.5.6Z"/>
</svg>