<?xml version="1.0" encoding="UTF-8"?>
<svg id="Layer_1" data-name="Layer 1" xmlns="http://www.w3.org/2000/svg" viewBox="0 0 70 70">
  <defs>
    <style>
      .cls-1 {
        fill: #dc2626;
      }

      .cls-1, .cls-2 {
        stroke-width: 0px;
      }

      .cls-2 {
        fill: #fdc040;
      }
    </style>
  </defs>
  <path class="cls-2" d="M14.5,16.5v18.5c3.5-1.2,12.1-1.4,18.5,7,1.5,3.2,3.9,10.5,1.5,14.5l7,4v-30l-27-14Z"/>
  <g>
    <path class="cls-1" d="M69.3,15.1L42,.2c-.4-.2-.9-.2-1.3,0l-10.3,5.6c-.2,0-.4.2-.6.3L13.5,15.1c-.4.2-.7.7-.7,1.2v18.1c-2.8.9-5.3,2.4-7.4,4.5C-.2,44.4-1.6,52.8,1.8,59.8c.3.7,1.1,1,1.8.6.7-.3,1-1.2.6-1.8-2.9-5.9-1.7-13,3-17.7,2.9-2.9,6.8-4.5,10.9-4.5s8,1.6,10.9,4.5c2.9,2.9,4.5,6.8,4.5,10.9s-1.6,8-4.5,10.9c-4.7,4.7-11.8,5.9-17.7,3-.7-.3-1.5,0-1.8.6-.3.7,0,1.5.6,1.8,2.5,1.2,5.3,1.8,8,1.8,4.7,0,9.4-1.8,12.9-5.3,1.6-1.6,2.9-3.4,3.8-5.5l5.9,3.2c.2.1.4.2.7.2s.5,0,.7-.2l27.3-15c.4-.2.7-.7.7-1.2v-9.5c0-.8-.6-1.4-1.4-1.4s-1.4.6-1.4,1.4v8.7l-24.5,13.5v-26.8l8.1-4.4v7c0,.5.3.9.7,1.2.2.1.5.2.7.2s.5,0,.7-.2l5.8-3.2c.4-.2.7-.7.7-1.2v-8.5l7.9-4.3v7.2c0,.8.6,1.4,1.4,1.4s1.4-.6,1.4-1.4v-9.5c0-.5-.3-1-.7-1.2ZM41.4,2.9l24.4,13.4-7.7,4.2-24.4-13.4,7.7-4.2ZM41.4,29.7l-24.4-13.4,8-4.4,24.4,13.4-8,4.4ZM52.2,23.8l-24.4-13.4,3.1-1.7,24.4,13.4-3.1,1.7ZM31.1,38.9c-3.4-3.4-8-5.3-12.9-5.3s-1.8,0-2.7.2v-15.2l24.5,13.5v26.8l-4.3-2.3c.4-1.5.6-3.2.6-4.8,0-4.9-1.9-9.4-5.3-12.9ZM56.7,30.7l-3.1,1.7v-6.2l3.1-1.7v6.2Z"/>
    <path class="cls-1" d="M68.6,29.9c-.4,0-.7.1-1,.4-.3.3-.4.6-.4,1s.1.7.4,1c.3.3.6.4,1,.4s.7-.1,1-.4c.3-.3.4-.6.4-1s-.1-.7-.4-1c-.3-.3-.6-.4-1-.4Z"/>
    <path class="cls-1" d="M13.6,53.2c.3,0,.7-.1,1-.4.5-.5.5-1.4,0-1.9l-.9-.9h8.1c2,0,3.6,1.6,3.6,3.6s-1.6,3.6-3.6,3.6h-4.8c-.8,0-1.4.6-1.4,1.4s.6,1.4,1.4,1.4h4.8c3.5,0,6.3-2.8,6.3-6.3s-2.8-6.3-6.3-6.3h-8.1l.9-.9c.5-.5.5-1.4,0-1.9-.5-.5-1.4-.5-1.9,0l-3.3,3.3c-.5.5-.5,1.4,0,1.9l3.3,3.3c.3.3.6.4,1,.4Z"/>
    <path class="cls-1" d="M6.3,65.1c-.4,0-.8-.2-1-.5h0c-.5-.6-.4-1.4.2-1.9.6-.5,1.4-.4,1.9.2.5.6.4,1.4-.2,1.9-.3.2-.6.3-.9.3Z"/>
  </g>
</svg>