<?xml version="1.0" encoding="UTF-8"?>
<svg id="Layer_1" data-name="Layer 1" xmlns="http://www.w3.org/2000/svg" viewBox="0 0 16.9 16.9">
  <defs>
    <style>
      .cls-1 {
        fill: #dc2626;
        stroke-width: 0px;
      }
    </style>
  </defs>
  <path class="cls-1" d="M7,16.9H0v-1.4h7v1.4ZM5.6,12.7H0v1.4h5.6v-1.4ZM4.2,9.8H0v1.4h4.2v-1.4ZM8.4,0c-2.2,0-4.4.9-6,2.5C.9,4.1,0,6.2,0,8.4h1.4c0-1.4.4-2.7,1.2-3.9.8-1.2,1.9-2.1,3.2-2.6,1.3-.5,2.7-.7,4.1-.4,1.4.3,2.6.9,3.6,1.9,1,1,1.7,2.2,1.9,3.6.3,1.4.1,2.8-.4,4.1-.5,1.3-1.4,2.4-2.6,3.2-1.2.8-2.5,1.2-3.9,1.2v1.4c2.2,0,4.4-.9,6-2.5s2.5-3.7,2.5-6-.9-4.4-2.5-6c-1.6-1.6-3.7-2.5-6-2.5h0ZM7.7,4.9v3.8l2.3,2.3,1-1-1.9-1.9v-3.2h-1.4Z"/>
</svg>