<?xml version="1.0" encoding="UTF-8"?>
<svg id="Layer_1" data-name="Layer 1" xmlns="http://www.w3.org/2000/svg" viewBox="0 0 14 16.8">
  <defs>
    <style>
      .cls-1 {
        fill: #dc2626;
        stroke-width: 0px;
      }
    </style>
  </defs>
  <path class="cls-1" d="M7,16.8l-.5-.4c-.7-.6-6.5-5.6-6.5-9.3S.7,3.4,2.1,2.1C3.4.7,5.2,0,7,0s3.6.7,5,2.1c1.3,1.3,2.1,3.1,2.1,5,0,3.7-5.9,8.8-6.5,9.3l-.5.4ZM7,1.5c-1.5,0-2.9.6-3.9,1.6-1,1-1.6,2.4-1.6,3.9,0,2.3,3.6,6,5.5,7.7,1.9-1.7,5.5-5.4,5.5-7.7,0-1.5-.6-2.9-1.6-3.9-1-1-2.4-1.6-3.9-1.6Z"/>
  <path class="cls-1" d="M7,9.8c-.6,0-1.1-.2-1.5-.5-.5-.3-.8-.7-1-1.2-.2-.5-.3-1.1-.2-1.6.1-.5.4-1,.8-1.4s.9-.7,1.4-.8c.5-.1,1.1,0,1.6.2.5.2.9.6,1.2,1,.3.5.5,1,.5,1.5s-.3,1.4-.8,2c-.5.5-1.2.8-2,.8ZM7,5.6c-.3,0-.5,0-.8.2-.2.2-.4.4-.5.6-.1.3-.1.5,0,.8,0,.3.2.5.4.7s.4.3.7.4c.3,0,.5,0,.8,0,.3-.1.5-.3.6-.5.2-.2.2-.5.2-.8s-.1-.7-.4-1c-.3-.3-.6-.4-1-.4Z"/>
</svg>