<?xml version="1.0" encoding="UTF-8"?>
<svg id="Layer_1" data-name="Layer 1" xmlns="http://www.w3.org/2000/svg" xmlns:xlink="http://www.w3.org/1999/xlink" viewBox="0 0 70 70">
  <defs>
    <style>
      .cls-1 {
        clip-path: url(#clippath);
      }

      .cls-2 {
        fill: none;
      }

      .cls-2, .cls-3, .cls-4 {
        stroke-width: 0px;
      }

      .cls-3 {
        fill: #dc2626;
      }

      .cls-4 {
        fill: #fdc040;
      }
    </style>
    <clipPath id="clippath">
      <rect class="cls-2" width="70" height="70"/>
    </clipPath>
  </defs>
  <g class="cls-1">
    <g>
      <path class="cls-3" d="M15.3,49c-.6-.5-1.4-.4-1.9.2l-3.4,4.1-1.2-1c-.6-.5-1.4-.4-1.9.2-.5.6-.4,1.4.2,1.9l2.3,1.9c.2.2.6.3.9.3s0,0,.1,0c.4,0,.7-.2.9-.5l4.3-5.1c.5-.6.4-1.4-.2-1.9Z"/>
      <path class="cls-4" d="M43.7,22.3v4c0,.5-2,2-2.5,2h-9.1c-.8-.2-2.5-.2-2.5,1v3.5l-2,.5c-.5.3-1.5,1.1-1.5,1.5s-.5,1.5,0,2,1.5,1,2,1.5,1.5,0,1.5.5v2c0,.4.3,1.5.5,2,.3.3,1.1,1,1.5,1s1.2.3,1.5.5v1.5c0,.4.7,1.5,1,2,.5.3,1.7,1,2.5,1s9.6,1,11.1,1,5.2-.7,7.1-1l3.5-2.5,5.1-1h3l2-1v-2.5l.5-10.6-1-2h-3.5c-.4,0-2.2-1.3-3-2-.7-.5-2-1.6-2-2s-3-1.9-4.6-2.5l-2-.5h-9.1Z"/>
      <path class="cls-4" d="M25.5,8.1v12.1l4-1.5,1.5-1,5.1,2.5,1.5-1.5-.5-9.6-1.5-1h-10.1Z"/>
      <path class="cls-3" d="M67.1,27.9h-2c-1.6,0-3-1.5-4.5-3.1-1-1.1-2.1-2.2-3.4-3.1v-11.7c0-2.1-1.7-3.7-3.7-3.7H8.9c-2.1,0-3.7,1.7-3.7,3.7v9.5c0,.8.6,1.4,1.4,1.4s1.4-.6,1.4-1.4v-9.5c0-.5.5-1,1-1h15.1v12.1c0,.5.3,1,.7,1.2.2.1.4.2.7.2s.5,0,.7-.2l5.1-3.2,5.1,3.2c.4.3,1,.3,1.4,0,.4-.2.7-.7.7-1.2v-12.1h15.1c.5,0,1,.5,1,1v10.5c-.4,0-.9-.1-1.4-.2,0,0,0,0,0,0h-7.7s0,0,0,0c-1.6,0-2.5.8-2.9,1.4-.7,1-.7,2.3-.2,3.7.1.3.3.6.5.9h-10.4c-2.2,0-4,1.8-4,4s0,.9.2,1.3h-.4c-2.2,0-4,1.8-4,4s1.8,4,4,4h.4c-.1.4-.2.8-.2,1.3,0,2.2,1.7,3.9,3.8,4-.1.4-.2.9-.2,1.3,0,2.2,1.8,4,4,4h16.9c.6,0,1.1,0,1.6-.2v4.3c0,.5-.5,1-1,1h-31.7c.3-1,.4-2,.4-3,0-6.1-5-11.1-11.1-11.1s-2.2.2-3.2.5v-10.2c0-.8-.6-1.4-1.4-1.4s-1.4.6-1.4,1.4v11.5c-3.1,2-5.1,5.4-5.1,9.4,0,6.1,5,11.1,11.1,11.1s7.6-2.2,9.5-5.4h32.9c2.1,0,3.7-1.7,3.7-3.7v-5.6c.3-.2.6-.4.9-.7,1.2-.9,2.3-1.7,3.9-1.7h5.1c1.6,0,2.9-1.3,2.9-2.9v-12.9c0-1.6-1.3-2.9-2.9-2.9ZM35.6,18.6l-3.7-2.3c-.4-.3-1-.3-1.4,0l-3.7,2.3v-9.6h8.9v9.6ZM11.1,61c-4.6,0-8.4-3.8-8.4-8.4s3.8-8.4,8.4-8.4,8.4,3.8,8.4,8.4-3.8,8.4-8.4,8.4ZM67.3,43.7c0,0,0,.2-.2.2h-5.1c-2.6,0-4.2,1.2-5.6,2.3-1.2.9-2.1,1.6-3.5,1.6h-16.9c-.7,0-1.3-.6-1.3-1.3s.6-1.3,1.3-1.3h4.5c.8,0,1.4-.6,1.4-1.4s-.6-1.4-1.4-1.4h-8.1c-.7,0-1.3-.6-1.3-1.3s.6-1.3,1.3-1.3h8.1c.8,0,1.4-.6,1.4-1.4s-.6-1.4-1.4-1.4h-12.3c-.7,0-1.3-.6-1.3-1.3s.6-1.3,1.3-1.3h12.3c.8,0,1.4-.6,1.4-1.4s-.6-1.4-1.4-1.4h-8.1c-.7,0-1.3-.6-1.3-1.3s.6-1.3,1.3-1.3h20.2c.8,0,1.4-.6,1.4-1.4s-.6-1.4-1.4-1.4h-4.9c-1.3,0-2.3-.8-2.8-1.9-.3-.7-.2-1.1-.1-1.2,0-.1.3-.2.7-.2h7.7c2.3,0,3.9,1.8,5.6,3.6,1.8,1.9,3.6,3.8,6.4,4,0,0,0,0,0,0h2c0,0,.2,0,.2.2v12.9h0Z"/>
      <path class="cls-3" d="M6.5,27c.8,0,1.4-.6,1.4-1.4s-.6-1.4-1.4-1.4-1.4.6-1.4,1.4h0c0,.8.6,1.4,1.4,1.4Z"/>
    </g>
  </g>
</svg>