<?xml version="1.0" encoding="UTF-8"?>
<svg id="Layer_1" data-name="Layer 1" xmlns="http://www.w3.org/2000/svg" viewBox="0 0 18.4 21">
  <defs>
    <style>
      .cls-1 {
        fill: #dc2626;
        stroke-width: 0px;
      }
    </style>
  </defs>
  <path class="cls-1" d="M13,3.5c-1.1-.9-2.1-1.8-3.2-2.9l-.6-.6-.6.6c-2,2-2.9,5-3.3,6.8-.3-.5-.5-1-.7-1.6l-.4-1.4-1.1,1C1.3,7.2,0,9,0,11.8c0,2,.6,4,1.9,5.6,1.2,1.6,3,2.8,4.9,3.3.6.1,1.2.2,1.8.3.2,0,.4,0,.6,0,.1,0,.2,0,.3,0,2.4,0,4.6-1.1,6.3-2.8s2.6-4,2.6-6.4c0-3.8-2.5-5.9-5.3-8.3ZM9.4,19.2c0,0-.2,0-.3,0-.8,0-1.5-.4-2.1-.9-.5-.6-.9-1.3-.9-2.1,0-1.1.6-1.7,1.9-2.8.3-.3.7-.6,1.1-1,.3.3.7.6,1,.8,1.4,1.1,2.1,1.8,2.1,2.9,0,.8-.3,1.5-.8,2.1-.5.6-1.3.9-2,.9ZM13.8,17.7h0c.2-.5.2-1,.2-1.5,0-2-1.3-3.1-2.7-4.3-.5-.4-1-.8-1.5-1.3l-.6-.6-.6.6c-.6.6-1.1,1-1.6,1.5-1.4,1.2-2.6,2.2-2.6,4.1,0,.5,0,1,.3,1.5-.9-.7-1.6-1.6-2.2-2.6-.5-1-.8-2.2-.8-3.3,0-1.5.6-3,1.7-4.1.2.4.4.7.7,1.1.2.2.4.4.7.5.3.1.6.1.9,0,.3,0,.6-.2.8-.4.2-.2.4-.5.4-.8.4-2,1.2-3.9,2.3-5.6.9.9,1.8,1.6,2.7,2.4,2.7,2.3,4.7,4,4.7,7,0,1.1-.3,2.3-.8,3.3-.5,1-1.2,1.9-2.1,2.6h0Z"/>
</svg>