<?xml version="1.0" encoding="UTF-8"?>
<svg id="Layer_1" data-name="Layer 1" xmlns="http://www.w3.org/2000/svg" viewBox="0 0 63.7 70">
  <defs>
    <style>
      .cls-1 {
        fill: #dc2626;
      }

      .cls-1, .cls-2 {
        stroke-width: 0px;
      }

      .cls-2 {
        fill: #fdc040;
      }
    </style>
  </defs>
  <circle class="cls-2" cx="43.9" cy="49" r="18"/>
  <g>
    <path class="cls-1" d="M47.7,30.3v-13.2c0-.4-.2-.7-.4-1L32.4.5c-.3-.3-.7-.5-1.1-.5H7.8C3.5,0,0,3.5,0,7.9v44.5c0,4.3,3.5,7.8,7.8,7.8h18.6c3.5,5.8,9.9,9.7,17.2,9.7,11.1,0,20.1-9,20.1-20.1,0-9.7-6.9-17.8-16-19.6ZM32.8,5.1l10,10.5h-6.5c-1.9,0-3.5-1.6-3.5-3.5v-7ZM7.8,57.3c-2.7,0-4.9-2.2-4.9-4.9V7.9c0-2.7,2.2-5,4.9-5h22.1v9.2c0,3.5,2.9,6.4,6.4,6.4h8.5v11.4c-.4,0-.8,0-1.2,0-5.1,0-9.8,2-13.3,5H11.8c-.8,0-1.5.7-1.5,1.5s.7,1.5,1.5,1.5h15.8c-1,1.5-1.9,2.9-2.6,4.5h-13.2c-.8,0-1.5.7-1.5,1.5s.7,1.5,1.5,1.5h12.3c-.4,1.5-.6,3.1-.6,4.7,0,2.6.5,5.2,1.4,7.4H7.8ZM43.6,67.1c-9.5,0-17.1-7.7-17.1-17.1s7.7-17.1,17.1-17.1,17.1,7.7,17.1,17.1-7.7,17.1-17.1,17.1Z"/>
    <path class="cls-1" d="M11.8,30.5h14.8c.8,0,1.5-.7,1.5-1.5s-.7-1.5-1.5-1.5h-14.8c-.8,0-1.5.7-1.5,1.5s.7,1.5,1.5,1.5Z"/>
    <path class="cls-1" d="M43.1,41c.1,0,.2,0,.4,0s.3,0,.4,0c1.9.2,3.4,1.8,3.4,3.7s.7,1.5,1.5,1.5,1.5-.7,1.5-1.5c0-3.2-2.3-5.9-5.3-6.5v-.9c0-.8-.7-1.5-1.5-1.5s-1.5.7-1.5,1.5v1c-2.9.7-5.1,3.3-5.1,6.5s3,6.7,6.7,6.7,3.7,1.7,3.7,3.7-1.7,3.7-3.7,3.7-3.7-1.7-3.7-3.7-.7-1.5-1.5-1.5-1.5.7-1.5,1.5c0,3.1,2.2,5.8,5.1,6.5v1.5c0,.8.7,1.5,1.5,1.5s1.5-.7,1.5-1.5v-1.5c3-.6,5.3-3.3,5.3-6.5s-3-6.7-6.7-6.7-3.7-1.7-3.7-3.7,1.4-3.5,3.3-3.7Z"/>
  </g>
</svg>