<?xml version="1.0" encoding="UTF-8"?>
<svg id="Layer_1" data-name="Layer 1" xmlns="http://www.w3.org/2000/svg" viewBox="0 0 16 16">
  <defs>
    <style>
      .cls-1 {
        fill: #dc2626;
        stroke-width: 0px;
      }
    </style>
  </defs>
  <path class="cls-1" d="M1,4.4c-.2,0-.4.2-.6.4-.2.2-.3.4-.3.6,0,.2,0,.5,0,.7,0,.2.2.4.3.6l2.3,2.3v4.4h4.4l2.3,2.3c.1.1.3.2.4.3.2,0,.3.1.5.1.1,0,.2,0,.3,0,.2,0,.4-.2.6-.3.2-.2.3-.4.3-.6L16,0,1,4.4ZM1.3,5.7l11.4-3.3L4,11v-2.7l-2.7-2.7ZM10.3,14.7l-2.7-2.7h-2.7L13.6,3.3l-3.3,11.4Z"/>
</svg>